<?xml version="1.0" standalone="no"?>
<!DOCTYPE svg PUBLIC "-//W3C//DTD SVG 1.1//EN" "http://www.w3.org/Graphics/SVG/1.1/DTD/svg11.dtd" >
<svg>
<metadata>
Created by FontForge 20090622 at Wed Nov 23 16:53:48 2016
 By ffonts
1.2, Copyright Copr. Castcraft Software, Inc. 1990-1991.
</metadata>
<defs>
<font id="OPTIOnyx" horiz-adv-x="338" >
  <font-face 
    font-family="OPTIOnyx"
    font-weight="500"
    font-stretch="normal"
    units-per-em="1000"
    panose-1="0 0 0 0 0 0 0 0 0 0"
    ascent="800"
    descent="-200"
    x-height="566"
    cap-height="791"
    bbox="-64 -281.879 830 1069.6"
    underline-thickness="60"
    underline-position="-78"
    stemh="11"
    stemv="114"
    unicode-range="U+0020-U+FB02"
  />
<missing-glyph horiz-adv-x="280" 
 />
    <glyph glyph-name=".notdef" horiz-adv-x="280" 
 />
    <glyph glyph-name="space" unicode=" " horiz-adv-x="179" 
d="M0 0z" />
    <glyph glyph-name="exclam" unicode="!" horiz-adv-x="174" 
d="M89 183h-11l-44 434c-5 40 -17 132 25 155c18 10 44 9 60 -2c36 -25 30 -80 22 -141zM68 117c11 7 26 7 39 -1c16 -9 25 -27 27 -51c3 -22 -5 -48 -22 -62c-10 -7 -24 -10 -37 -5c-15 5 -28 18 -34 39c-6 23 -2 67 27 80z" />
    <glyph glyph-name="quotedbl" unicode="&#x22;" horiz-adv-x="279" 
d="M99 458h-23l-20 204c-3 38 -13 108 12 123c13 8 27 8 38 0c25 -17 18 -80 13 -127zM196 458h-22l-20 204c-3 38 -13 108 12 123c13 8 27 8 38 0c25 -17 17 -80 13 -127z" />
    <glyph glyph-name="numbersign" unicode="#" horiz-adv-x="775" 
d="M426 697l-76 -222h168l76 222h60l-76 -222h164l-17 -49h-163l-61 -173h164l-16 -49h-164l-75 -219h-60l75 219h-168l-76 -219h-60l76 219h-160l16 49h161l60 173h-160l16 49h161l76 222h59zM273 253h170l59 173h-169z" />
    <glyph glyph-name="dollar" unicode="$" horiz-adv-x="342" 
d="M153 803h29v-52c46 2 91 -22 110 -77c10 -30 12 -87 -10 -114c-11 -13 -25 -21 -40 -18c-11 2 -24 9 -29 27c-5 15 -6 39 7 56c7 8 18 16 31 17c16 1 30 -10 30 -10c-1 31 -13 73 -52 96c-13 7 -32 11 -47 10v-272l47 -69c71 -106 115 -208 63 -312
c-26 -52 -70 -83 -110 -93v-116h-29v113c-51 1 -93 27 -114 88c-12 36 -16 100 8 130c9 12 21 19 39 16c14 -2 26 -8 32 -30c6 -18 2 -50 -10 -65c-16 -21 -41 -21 -60 -4c1 -39 17 -88 65 -114c12 -7 30 -8 40 -8v295c-14 28 -51 97 -51 97c-52 101 -82 180 -46 264
c18 42 54 71 97 88v57zM153 732c-16 -5 -38 -23 -47 -48c-17 -51 9 -109 47 -170v218zM182 7c21 5 41 19 54 46c25 53 -18 132 -54 198v-244z" />
    <glyph glyph-name="percent" unicode="%" horiz-adv-x="393" 
d="M332 792h32l-303 -799h-33l291 765c-44 -31 -89 -39 -141 -30c10 -45 27 -266 -27 -316c-13 -12 -35 -17 -54 -11c-28 9 -37 27 -47 61c-14 48 -28 254 14 305c14 17 33 25 55 24c19 -1 27 -4 42 -21c5 -6 7 -10 9 -14c7 -3 17 -9 27 -10c48 -5 82 2 135 46zM273 386
c17 4 35 3 56 -19c44 -49 40 -218 29 -274c-4 -21 -15 -76 -51 -95c-14 -8 -36 -9 -52 1c-38 22 -45 88 -48 115c-4 37 -22 248 66 272zM123 738c0 22 0 37 -12 37s-12 -15 -12 -37v-281c0 -23 0 -38 12 -38s12 15 12 38v281zM298 331c0 23 0 38 -12 38s-12 -15 -12 -38
v-281c0 -23 0 -38 12 -38s12 15 12 38v281z" />
    <glyph glyph-name="ampersand" unicode="&#x26;" horiz-adv-x="487" 
d="M230 499c0 0 18 -83 41 -161c22 -72 49 -132 73 -176c24 58 45 134 43 197c-16 -13 -36 -22 -56 -14c-14 5 -27 19 -32 41c-5 27 -2 53 10 70c8 10 23 18 41 17c16 -1 31 -10 43 -28c34 -57 20 -140 -8 -227c-10 -30 -24 -60 -31 -76c4 -13 13 -31 25 -52
c10 -20 23 -35 36 -37c10 -2 19 6 23 14c5 9 9 24 11 45h9c-1 -44 -12 -98 -59 -116c-35 -14 -83 1 -114 39c-29 -38 -96 -55 -142 -39c-51 17 -88 69 -101 114c-25 87 -18 201 58 292l31 38l-8 43c-23 109 -44 215 33 291c20 20 41 28 69 24c28 -3 49 -23 64 -56
c19 -46 18 -127 -15 -183c-19 -34 -29 -45 -44 -60zM266 703c-2 35 -11 72 -32 81c-11 5 -23 3 -29 -10c-22 -44 -14 -105 6 -194l15 -65c35 62 43 141 40 188zM104 333c-2 -61 51 -267 114 -299c23 -12 47 0 57 16c-16 28 -44 79 -84 183c-37 97 -55 189 -55 189
c-25 -30 -31 -59 -32 -89z" />
    <glyph glyph-name="quotesingle" unicode="'" horiz-adv-x="161" 
d="M44 540l-9 9c27 35 54 79 63 142c-12 -8 -37 -9 -50 2c-12 10 -24 32 -18 71c4 19 11 36 31 46c13 7 33 5 44 -3c20 -14 25 -35 25 -69c0 -56 -26 -125 -86 -198z" />
    <glyph glyph-name="parenleft" unicode="(" horiz-adv-x="221" 
d="M133 139c0 -82 1 -134 60 -134v-25c-17 -1 -41 5 -51 10c-100 51 -111 174 -111 250v310c0 76 11 198 111 249c10 6 34 11 51 10v-25c-59 0 -60 -52 -60 -133v-512z" />
    <glyph glyph-name="parenright" unicode=")" horiz-adv-x="221" 
d="M89 651c0 81 -1 133 -60 133v25c18 1 41 -4 51 -10c100 -51 111 -173 111 -249v-310c0 -76 -11 -199 -111 -250c-10 -5 -33 -11 -51 -10v25c59 0 60 52 60 134v512z" />
    <glyph glyph-name="asterisk" unicode="*" horiz-adv-x="205" 
d="M70 704c-6 -11 -11 -26 -29 -21c-10 4 -14 17 -6 26c5 8 15 9 27 10c11 1 18 4 29 11c-6 4 -19 14 -29 13c-8 -1 -12 -3 -16 -3c-7 1 -13 3 -16 12c-3 14 8 25 20 22c11 -2 14 -13 20 -19c8 -8 14 -11 27 -17c0 14 0 20 -4 30c-3 11 -11 21 -5 30c6 11 17 11 25 6
c13 -9 4 -26 -1 -36c-5 -8 -5 -23 -5 -30c7 3 23 9 26 18c5 12 17 24 29 19c9 -3 17 -17 8 -28c-9 -13 -22 -5 -31 -6c-11 -1 -13 -6 -26 -10c5 -4 19 -12 28 -12c11 0 29 1 31 -15c2 -10 -7 -21 -19 -20c-11 1 -14 13 -21 20s-13 11 -25 18c0 -7 0 -22 5 -30
c5 -10 14 -27 1 -36c-8 -5 -19 -5 -25 6c-6 9 0 18 5 30c5 9 4 16 4 30c-9 -4 -23 -13 -27 -18z" />
    <glyph glyph-name="plus" unicode="+" horiz-adv-x="702" 
d="M322 617h67v-274h270v-64h-269v-279h-68v279h-270v64h270v274z" />
    <glyph glyph-name="comma" unicode="," horiz-adv-x="161" 
d="M44 -145l-9 8c27 35 54 80 63 142c-12 -7 -37 -8 -50 3c-12 9 -24 31 -18 70c4 20 11 37 31 47c13 6 33 4 44 -4c20 -14 25 -34 25 -69c0 -55 -26 -125 -86 -197z" />
    <glyph glyph-name="hyphen" unicode="-" horiz-adv-x="202" 
d="M44 368h134v-83h-134v83z" />
    <glyph glyph-name="period" unicode="." horiz-adv-x="161" 
d="M57 117c11 7 27 7 40 -1c15 -9 24 -27 27 -51c2 -22 -6 -48 -23 -62c-10 -7 -24 -10 -37 -5c-15 5 -28 18 -34 39c-6 23 -2 67 27 80z" />
    <glyph glyph-name="slash" unicode="/" horiz-adv-x="399" 
d="M338 787h33l-309 -794h-33z" />
    <glyph glyph-name="zero" unicode="0" 
d="M146 790c22 4 52 6 79 -12c60 -45 69 -177 71 -234c2 -56 3 -39 3 -147c0 -123 -1 -115 -5 -179c-3 -51 -14 -180 -84 -215c-26 -13 -59 -11 -82 2c-53 31 -66 99 -78 182s-9 314 -1 405c6 84 29 182 97 198zM142 56c0 -38 7 -52 29 -52s29 13 29 52v674
c0 39 -7 52 -29 52s-29 -14 -29 -52v-674z" />
    <glyph glyph-name="one" unicode="1" 
d="M183 791h48v-780h39v-11h-194v11h51v682c-10 -4 -30 -12 -45 -14v13c52 15 84 35 101 99z" />
    <glyph glyph-name="two" unicode="2" 
d="M57 94h226v137h17v-231h-265c0 66 2 150 66 232l15 20c87 111 82 115 82 211v205c0 51 0 91 -16 103c-7 6 -21 9 -38 1c-38 -17 -60 -57 -71 -96c-5 -14 -9 -45 -4 -95c20 18 39 26 63 16c21 -10 32 -40 32 -70c0 -26 -5 -60 -30 -76c-10 -7 -29 -12 -44 -3
c-29 16 -38 54 -42 94c-7 60 2 183 73 230c25 17 62 27 96 13c51 -20 74 -79 82 -127c25 -135 4 -223 -130 -374l-35 -39c-54 -61 -70 -101 -77 -151z" />
    <glyph glyph-name="three" unicode="3" 
d="M180 418c66 -24 97 -58 113 -133c12 -55 15 -199 -46 -261c-32 -33 -81 -41 -116 -34c-42 9 -67 35 -83 77c-17 44 -22 131 8 174c12 16 29 26 49 25c16 -1 32 -8 41 -26c12 -21 15 -65 -1 -97c-8 -18 -22 -31 -43 -33c-14 -2 -30 4 -43 14c-3 -30 0 -83 46 -111
c20 -12 48 -17 63 -9c27 17 25 43 25 114v191c0 35 3 83 -18 97c-5 2 -12 6 -30 3c-17 -3 -22 -9 -32 -10c-7 -1 -34 14 -34 19c0 4 31 18 39 17c7 -1 13 -7 25 -11c8 -3 18 -1 22 0c30 12 28 54 28 107v145c0 50 2 89 -15 101c-9 5 -21 7 -41 1c-25 -8 -53 -33 -67 -67
c-7 -19 -8 -34 -7 -53c24 17 55 21 73 6c17 -15 26 -38 22 -64c-2 -21 -13 -44 -37 -54c-15 -7 -32 -6 -46 4c-27 18 -31 73 -29 100c1 44 18 105 70 131c30 15 75 18 107 -1c59 -36 67 -112 66 -165c-3 -79 -11 -149 -109 -197z" />
    <glyph glyph-name="four" unicode="4" 
d="M200 791h46v-560h66v-11h-66v-209h33v-11h-169v11h32v209h-112zM50 231h92v335z" />
    <glyph glyph-name="five" unicode="5" 
d="M277 806h12l-12 -114h-202l-12 -247c6 30 40 83 69 96c31 13 62 10 90 -8c81 -53 77 -217 75 -286c-1 -24 -4 -195 -79 -239c-33 -20 -91 -20 -117 -4c-48 30 -60 78 -65 124c-3 30 0 82 27 104c14 11 32 14 49 9c21 -8 32 -30 36 -48c5 -27 5 -75 -19 -98
c-19 -18 -47 -16 -66 -6c5 -26 15 -61 54 -79c22 -11 44 -6 52 0c24 14 21 51 21 95v327c0 38 2 89 -16 99c-10 6 -24 7 -37 -1c-61 -35 -77 -145 -78 -186h-12l19 447h208z" />
    <glyph glyph-name="six" unicode="6" 
d="M259 706c-11 34 -29 59 -55 67c-14 5 -27 5 -37 -3c-17 -13 -18 -41 -18 -106v-244c16 30 36 44 64 45c19 1 39 -6 54 -29c45 -66 39 -266 17 -335c-11 -35 -40 -86 -82 -104c-23 -10 -63 -7 -88 14c-44 36 -57 102 -65 173c-9 73 -8 115 -8 188c0 63 0 100 3 162
c6 107 18 198 80 240c27 19 72 20 102 3c46 -28 60 -87 64 -127c2 -25 -1 -64 -31 -85c-12 -8 -27 -10 -42 -3c-20 8 -32 31 -35 56c-3 21 1 58 24 80c13 13 30 16 53 8zM141 53c0 -38 7 -52 29 -52s28 13 28 52v343c0 24 -1 44 -9 47c-9 2 -19 -9 -25 -22
c-5 -9 -8 -15 -13 -32c-7 -19 -10 -41 -10 -64v-272z" />
    <glyph glyph-name="seven" unicode="7" 
d="M303 783c0 -63 0 -114 -17 -181c-11 -45 -26 -76 -41 -123c-34 -99 -37 -155 -37 -254v-62c0 -51 5 -128 -27 -156c-12 -11 -27 -15 -45 -11c-20 3 -35 15 -43 32c-34 79 8 210 57 300c45 84 72 135 106 224c18 50 29 105 29 135h-224v-114h-13v210h255z" />
    <glyph glyph-name="eight" unicode="8" 
d="M208 460l40 -99c36 -89 82 -211 23 -301c-28 -43 -62 -65 -105 -65c-35 0 -71 12 -97 52c-40 60 -40 141 -8 221c15 39 31 64 63 115l-24 61c-32 81 -78 219 -14 305c27 36 64 49 95 46c27 -3 54 -15 72 -51c41 -85 16 -179 -45 -284zM228 722c-9 30 -25 59 -49 63
c-15 4 -29 -3 -40 -15c-33 -37 5 -143 25 -195l39 -102c32 73 43 192 25 249zM130 368c-39 -83 -69 -250 -23 -328c12 -19 30 -32 49 -32c13 0 29 3 42 22c36 55 3 161 -31 245z" />
    <glyph glyph-name="nine" unicode="9" 
d="M202 728c0 38 -7 52 -30 52c-21 0 -28 -13 -28 -52v-343c0 -24 1 -44 10 -47c9 -2 18 9 25 22c4 9 8 15 13 32c6 19 10 41 10 64v272zM84 75c10 -34 29 -59 55 -67c14 -5 27 -5 37 3c17 13 18 41 18 106v244c-16 -30 -37 -44 -64 -45c-19 -1 -39 6 -54 29
c-46 66 -39 266 -17 335c10 35 40 86 82 104c23 10 63 7 88 -14c43 -36 56 -102 65 -173c9 -73 8 -115 8 -188c0 -63 0 -100 -4 -162c-5 -107 -17 -198 -79 -240c-27 -19 -73 -20 -102 -3c-47 27 -61 87 -64 127c-2 25 1 64 31 85c11 7 27 10 42 3c19 -9 31 -31 35 -56
c3 -21 -2 -58 -24 -81c-13 -13 -31 -15 -53 -7z" />
    <glyph glyph-name="colon" unicode=":" horiz-adv-x="161" 
d="M57 572c11 6 27 6 40 -2c15 -8 24 -27 27 -50c2 -22 -6 -48 -23 -62c-10 -8 -24 -10 -37 -6c-15 6 -28 19 -34 39c-6 23 -2 68 27 81zM57 117c11 7 27 7 40 -1c15 -9 24 -27 27 -51c2 -22 -6 -48 -23 -62c-10 -7 -24 -10 -37 -5c-15 5 -28 18 -34 39c-6 23 -2 67 27 80z
" />
    <glyph glyph-name="semicolon" unicode=";" horiz-adv-x="161" 
d="M57 572c11 6 27 6 40 -2c15 -8 24 -27 27 -50c2 -22 -6 -48 -23 -62c-10 -8 -24 -10 -37 -6c-15 6 -28 19 -34 39c-6 23 -2 68 27 81zM44 -145l-9 8c27 35 54 80 63 142c-12 -7 -37 -8 -50 3c-12 9 -24 31 -18 70c4 20 11 37 31 47c13 6 33 4 44 -4c20 -14 25 -34 25 -69
c0 -55 -26 -125 -86 -197z" />
    <glyph glyph-name="less" unicode="&#x3c;" horiz-adv-x="568" 
d="M525 471l-385 -159l385 -157v-78l-476 202v68l476 202v-78z" />
    <glyph glyph-name="equal" unicode="=" horiz-adv-x="890" 
d="M65 471h765v-64h-765v64zM65 219h763v-61h-763v61z" />
    <glyph glyph-name="greater" unicode="&#x3e;" horiz-adv-x="568" 
d="M528 278l-476 -202v78l381 157l-381 159v78l476 -202v-68z" />
    <glyph glyph-name="question" unicode="?" horiz-adv-x="298" 
d="M193 330l10 7c22 -34 27 -79 11 -114c-10 -20 -33 -33 -58 -32c-23 1 -46 9 -62 34c-24 39 -5 98 21 154l14 30c38 82 41 92 41 191v91c0 37 2 70 -18 80c-16 8 -40 0 -57 -15c-43 -39 -47 -100 -42 -141c15 15 41 19 55 11c18 -11 26 -33 26 -65c0 -22 -4 -50 -26 -64
c-11 -8 -30 -10 -43 -4c-27 15 -34 57 -36 87c-3 43 9 143 61 186c29 24 79 24 105 12c49 -23 69 -70 73 -113c9 -86 -9 -157 -100 -254l-17 -18c-44 -46 -61 -106 -52 -145c5 -23 25 -41 43 -45c17 -5 38 0 50 12c16 17 21 47 16 72c-2 13 -6 26 -15 43zM112 117
c11 7 26 7 39 -1c15 -9 25 -27 27 -51c2 -22 -6 -48 -23 -62c-10 -7 -24 -10 -37 -5c-15 5 -28 18 -33 39c-7 23 -3 67 27 80z" />
    <glyph glyph-name="at" unicode="@" horiz-adv-x="852" 
d="M504 154c-45 -64 -93 -90 -158 -84c-43 4 -84 25 -107 76c-29 60 -5 173 36 233c48 72 107 109 174 107c33 -3 71 -20 90 -58c4 -6 5 -13 12 -33l21 77h74l-51 -190c-19 -75 -31 -112 -8 -136c14 -14 38 -17 63 -13c54 9 92 54 114 113c27 66 26 192 -26 265
c-73 99 -217 123 -297 119c-117 -7 -232 -56 -310 -196c-50 -96 -62 -249 -1 -357c64 -115 193 -159 291 -166c104 -4 205 21 325 94l23 -32c-168 -113 -366 -137 -513 -71c-142 64 -207 163 -225 295c-13 106 18 275 147 377c126 102 321 116 440 75
c107 -38 179 -120 202 -224c17 -79 3 -220 -80 -300c-42 -41 -116 -63 -160 -51c-41 10 -65 32 -76 80zM366 374c-40 -58 -71 -160 -51 -211c9 -24 29 -38 48 -43c27 -4 59 7 84 30c48 45 83 170 77 219c-6 27 -19 46 -44 57c-22 11 -46 9 -69 -4c-17 -10 -31 -27 -45 -48z
" />
    <glyph glyph-name="A" unicode="A" horiz-adv-x="343" 
d="M59 90l107 714h63l70 -793h27v-11h-170v11h38l-13 159h-96l-15 -95c-5 -38 5 -57 45 -64v-11h-102v11c29 12 39 27 46 79zM87 185h93l-32 400z" />
    <glyph glyph-name="B" unicode="B" horiz-adv-x="379" 
d="M29 791h101c51 0 141 7 188 -62c37 -55 31 -172 15 -218c-18 -53 -59 -86 -106 -103c54 -14 92 -42 112 -103c21 -63 13 -181 -33 -248c-46 -65 -132 -57 -179 -57h-98v11h36v769h-36v11zM182 415c12 0 33 0 39 7c17 16 18 47 18 94v168c0 34 0 70 -10 83
c-8 11 -18 13 -47 13v-365zM182 11c15 0 23 1 33 10c23 19 19 60 19 86v197c0 48 0 71 -9 84c-9 12 -22 13 -43 13v-390z" />
    <glyph glyph-name="C" unicode="C" horiz-adv-x="328" 
d="M243 744l41 54h12l1 -326h-22l-1 29c-4 105 -40 264 -84 292c-8 4 -16 4 -26 0c-23 -11 -20 -60 -20 -105v-575c0 -72 -4 -102 24 -115c9 -5 29 4 36 9c61 34 69 170 71 231c2 30 2 80 2 80h15v-59c0 -74 -10 -225 -79 -264c-23 -12 -62 -12 -85 1
c-71 38 -92 173 -98 296c-2 43 -1 81 -1 118c0 54 0 108 7 177c4 44 20 169 97 208c17 9 48 13 67 3c17 -9 30 -28 43 -54z" />
    <glyph glyph-name="D" unicode="D" horiz-adv-x="385" 
d="M29 804h85c23 0 127 5 172 -39c47 -46 57 -117 64 -206c5 -54 5 -103 5 -164c0 -38 0 -109 -3 -146c-6 -98 -10 -165 -74 -223c-34 -30 -94 -26 -139 -26h-110v11h36v780h-36v13zM182 11c18 0 29 2 38 10c20 16 20 42 20 67v630c0 54 -14 73 -58 73v-780z" />
    <glyph glyph-name="E" unicode="E" horiz-adv-x="379" 
d="M266 190h-15c-2 26 -3 68 -10 113c-11 59 -59 85 -59 85v-377c32 0 53 2 78 32c32 38 53 113 60 253l1 24h14v-320h-306v11h36v769h-36v11h306v-304h-16l-1 22c-6 104 -20 234 -84 263c-20 9 -33 8 -52 8v-373c34 0 48 26 59 85c7 45 8 87 10 113h15v-415z" />
    <glyph glyph-name="F" unicode="F" horiz-adv-x="368" 
d="M29 0v11h36v769h-36v11h306v-304h-16l-1 22c-6 104 -20 234 -84 263c-20 9 -33 8 -52 8v-373c34 0 48 26 59 85c7 45 8 87 10 113h15v-415h-15c-2 26 -3 68 -10 113c-11 59 -59 85 -59 85v-377h44v-11h-197z" />
    <glyph glyph-name="G" unicode="G" horiz-adv-x="358" 
d="M242 742l37 52h13v-329h-15s-2 28 -4 46c-12 123 -46 247 -83 276c-9 7 -22 9 -32 0c-16 -14 -14 -51 -14 -104v-626c0 -41 13 -60 30 -60c14 0 29 4 29 59v299h-28v11h160v-11h-24v-359h-14l-36 67c-15 -33 -30 -64 -71 -74c-22 -5 -50 -6 -80 21
c-59 52 -69 156 -75 225c-6 54 -6 95 -6 137c0 41 1 82 2 135c4 116 18 240 98 287c17 10 48 15 69 2c19 -11 34 -34 44 -54z" />
    <glyph glyph-name="H" unicode="H" horiz-adv-x="434" 
d="M182 421h67v359h-22v11h175v-11h-35v-769h35v-11h-175v11h22v396h-67v-396h23v-11h-176v11h36v769h-36v11h176v-11h-23v-359z" />
    <glyph glyph-name="I" unicode="I" horiz-adv-x="249" 
d="M182 11h36v-11h-189v11h36v769h-36v11h189v-11h-36v-769z" />
    <glyph glyph-name="J" unicode="J" horiz-adv-x="352" 
d="M128 791h193v-11h-36v-602c0 -47 0 -136 -63 -174c-28 -17 -101 -27 -138 -7c-43 23 -57 63 -61 105c-5 39 -2 82 31 107c15 10 35 11 49 5c20 -9 29 -25 33 -52c4 -35 -7 -63 -26 -75c-19 -11 -43 -12 -62 1c-2 -7 0 -28 7 -45c8 -17 23 -30 36 -38c16 -8 38 -12 55 -1
c21 13 22 43 22 94v682h-40v11z" />
    <glyph glyph-name="K" unicode="K" horiz-adv-x="437" 
d="M29 791h189v-11h-36v-393l91 279c17 50 20 83 11 99c-10 16 -24 15 -40 15v11h132v-11c-48 -9 -61 -28 -80 -86l-50 -154l143 -529h36v-11h-176v11h24l-91 364v-364h25v-11h-178v11h36v769h-36v11z" />
    <glyph glyph-name="L" unicode="L" horiz-adv-x="352" 
d="M182 11c32 0 40 1 64 32c34 44 59 179 59 264v13h16v-320h-292v11h36v769h-36v11h198v-11h-45v-769z" />
    <glyph glyph-name="M" unicode="M" horiz-adv-x="477" 
d="M29 0v11c49 10 48 30 48 79v690h-36v11h147l47 -468l58 468h152v-11h-36v-769h36v-11h-188v11h36v671l-84 -682h-38l-80 662v-572c0 -49 -1 -69 48 -79v-11h-110z" />
    <glyph glyph-name="N" unicode="N" horiz-adv-x="359" 
d="M278 701c0 48 1 69 -48 79v11h109v-11c-48 -10 -47 -31 -47 -79v-701h-84l-122 731v-641c0 -49 -1 -69 47 -79v-11h-109v11c49 10 48 30 48 79v690h-36v11h155l87 -517v427z" />
    <glyph glyph-name="O" unicode="O" horiz-adv-x="347" 
d="M142 799c19 7 69 8 96 -12c61 -45 78 -160 81 -248c2 -54 3 -96 3 -143s1 -92 -3 -145c-8 -101 -28 -217 -96 -255c-22 -13 -72 -14 -98 2c-63 39 -83 140 -91 246c-5 50 -5 86 -5 152c0 44 1 88 4 141c4 131 39 237 109 262zM207 730c0 53 -15 63 -30 63
s-33 -10 -33 -63v-670c0 -53 18 -63 33 -63s30 10 30 63v670z" />
    <glyph glyph-name="P" unicode="P" horiz-adv-x="375" 
d="M29 791h134c66 0 103 2 146 -58c48 -65 42 -224 27 -279s-37 -93 -88 -109c-18 -7 -44 -7 -66 -7v-327h46v-11h-199v11h36v769h-36v11zM233 688c0 94 -4 92 -51 92v-430c47 0 51 -2 51 93v245z" />
    <glyph glyph-name="Q" unicode="Q" horiz-adv-x="347" 
d="M251 23c22 -19 22 -40 31 -67c11 -36 20 -46 39 -58c-13 -11 -53 -31 -102 -12c-41 16 -38 68 -38 100c-100 -8 -138 95 -151 244c-4 54 -5 105 -5 160c0 47 0 96 3 152c6 99 22 205 97 252c16 11 70 15 98 -1c73 -41 87 -162 92 -256c3 -63 3 -122 3 -177
c0 -48 0 -92 -6 -133c-9 -79 -19 -151 -61 -204zM203 730c0 43 -10 63 -31 63c-19 0 -32 -16 -32 -63v-677c22 10 43 9 63 -6v683zM141 37c0 -6 2 -17 10 -28c5 -8 19 -17 30 -11c0 12 -1 24 -14 36c-5 4 -17 10 -26 3z" />
    <glyph glyph-name="R" unicode="R" horiz-adv-x="424" 
d="M29 791h99c87 0 145 8 193 -65c33 -50 37 -173 20 -225c-21 -62 -62 -94 -109 -107c119 -30 119 -84 119 -200v-124c0 -17 -2 -47 24 -47c15 0 22 21 27 41c5 17 8 42 10 62h12c-1 -28 -9 -119 -53 -135c-24 -7 -65 -8 -91 9c-48 31 -44 106 -44 148v154
c0 21 -2 48 -5 58c-11 30 -25 27 -49 27v-376h36v-11h-189v11h36v769h-36v11zM182 401c11 0 25 1 34 7c20 12 23 36 23 90v179c0 69 -4 103 -57 103v-379z" />
    <glyph glyph-name="S" unicode="S" horiz-adv-x="334" 
d="M222 766l45 33h18v-320h-14s-4 58 -18 139c-12 67 -39 161 -81 171c-14 3 -29 0 -40 -17c-31 -47 10 -161 35 -216l81 -175c47 -101 87 -244 33 -337c-24 -39 -51 -52 -89 -57c-35 -5 -63 10 -92 48l-58 -35h-13v334h15s10 -68 18 -111c16 -85 40 -200 92 -213
c15 -3 35 2 49 19c40 52 -9 186 -36 244l-87 187c-42 92 -73 206 -17 291c24 35 58 54 94 53c25 0 44 -10 65 -38z" />
    <glyph glyph-name="T" unicode="T" horiz-adv-x="384" 
d="M362 791v-335h-13s-2 29 -4 45c-21 173 -36 220 -64 260c-9 12 -14 19 -33 19v-769h36v-11h-189v11h36v769c-18 0 -24 -7 -32 -19c-29 -40 -44 -87 -64 -260c-2 -16 -5 -45 -5 -45h-13v335h345z" />
    <glyph glyph-name="U" unicode="U" horiz-adv-x="386" 
d="M371 791v-11c-49 -13 -52 -51 -52 -87v-524c0 -57 2 -135 -54 -169c-34 -21 -113 -17 -146 2c-58 34 -54 122 -54 168v610h-36v11h185v-11h-32v-637c0 -79 0 -116 20 -131c13 -10 41 -9 55 0c47 30 45 116 45 168v513c0 50 -3 74 -51 87v11h120z" />
    <glyph glyph-name="V" unicode="V" horiz-adv-x="316" 
d="M181 791v-11h-28l43 -548l50 462c6 53 -2 76 -35 86v11h95v-11c-27 -12 -36 -21 -40 -62l-75 -718h-73l-80 780h-25v11h168z" />
    <glyph glyph-name="W" unicode="W" horiz-adv-x="523" 
d="M10 791h168v-11h-32l45 -560l54 483l-7 77h-30v11h175v-11h-29l43 -526l51 430c8 69 4 89 -35 96v11h98v-11c-38 -7 -41 -31 -47 -74l-81 -706h-66l-65 639l-72 -639h-65l-80 780h-25v11z" />
    <glyph glyph-name="X" unicode="X" horiz-adv-x="422" 
d="M35 791h180v-11h-38l67 -268l55 177c22 68 1 89 -40 91v11h120v-11c-34 -7 -42 -22 -60 -80l-67 -218l118 -471h29v-11h-189v11h45l-79 314l-65 -208c-26 -83 -14 -99 43 -106v-11h-133v11c38 7 47 25 65 80l82 263l-106 426h-27v11z" />
    <glyph glyph-name="Y" unicode="Y" horiz-adv-x="373" 
d="M13 791h177v-11h-39l75 -369l53 264c14 71 10 96 -36 105v11h116v-11c-30 -8 -46 -22 -60 -93l-65 -323v-353h44v-11h-204v11h43v373l-81 396h-23v11z" />
    <glyph glyph-name="Z" unicode="Z" horiz-adv-x="348" 
d="M49 791h280l-195 -780c72 0 94 -3 131 75c18 39 40 133 40 216v17h14v-319h-301l195 780c-26 0 -52 0 -74 -18c-44 -35 -75 -117 -75 -264v-13h-15v306z" />
    <glyph glyph-name="bracketleft" unicode="[" horiz-adv-x="271" 
d="M247 792v-45h-98v-831h98v-43h-182v919h182z" />
    <glyph glyph-name="backslash" unicode="\" horiz-adv-x="399" 
d="M372 -7h-35l-309 794h35z" />
    <glyph glyph-name="bracketright" unicode="]" horiz-adv-x="271" 
d="M208 791v-919h-182v43h99v831h-99v45h182z" />
    <glyph glyph-name="asciicircum" unicode="^" horiz-adv-x="368" 
d="M339 614h-41l-114 119l-114 -119h-41l120 181h71z" />
    <glyph glyph-name="underscore" unicode="_" horiz-adv-x="577" 
d="M614 -120h-585v41h585v-41z" />
    <glyph glyph-name="grave" unicode="`" horiz-adv-x="284" 
d="M260 614h-43l-85 54c-71 46 -104 68 -97 100c2 13 11 27 27 31c39 12 69 -28 121 -91z" />
    <glyph glyph-name="a" unicode="a" horiz-adv-x="320" 
d="M309 37c-5 -12 -17 -26 -36 -36c-12 -6 -22 -11 -43 -10c-38 2 -52 22 -63 57c-13 -32 -33 -51 -61 -56c-22 -3 -47 3 -63 17c-20 18 -21 68 -21 123v60c0 41 -4 90 31 115c12 9 41 19 54 25c26 11 35 14 54 20v95c0 55 2 100 -16 110c-7 5 -20 7 -42 -3s-35 -29 -39 -45
c13 7 46 8 63 -13c12 -16 15 -39 7 -61c-6 -19 -17 -29 -39 -35c-16 -4 -38 -1 -53 13c-16 15 -20 43 -15 70c7 33 32 64 71 80c41 17 104 14 134 -10c37 -28 33 -96 33 -137v-347c0 -25 -3 -36 9 -42c11 -5 22 4 26 13zM161 335c-18 -6 -33 -13 -40 -26
c-5 -10 -5 -29 -5 -43v-192c0 -25 1 -39 5 -44c6 -5 16 -3 21 0c21 14 19 73 19 126v179z" />
    <glyph glyph-name="b" unicode="b" horiz-adv-x="322" 
d="M29 796h113v-259c15 18 30 35 54 37c14 1 32 -4 48 -20c50 -51 51 -147 52 -270c0 -12 0 -65 -2 -91c-7 -86 -13 -157 -75 -194c-16 -10 -51 -11 -68 0c-30 18 -36 54 -40 85l-54 -93h-8v795h-20v10zM155 527c-6 -15 -13 -45 -13 -79v-371c0 -33 6 -61 24 -68
c13 -6 26 8 26 45v456c0 14 0 40 -15 40c-10 0 -18 -12 -22 -23z" />
    <glyph glyph-name="c" unicode="c" horiz-adv-x="274" 
d="M204 526l31 48h16v-235h-16c-4 31 -30 197 -76 218c-7 5 -16 6 -23 -1c-16 -10 -13 -80 -13 -93v-345c0 -40 -3 -93 19 -106c7 -4 22 -7 36 3c60 41 56 127 60 204v32h14c0 -102 0 -208 -63 -249c-20 -13 -63 -14 -87 -3c-48 22 -62 75 -69 121c-12 75 -32 354 51 430
c20 18 48 28 70 22c17 -5 28 -13 50 -46z" />
    <glyph glyph-name="d" unicode="d" horiz-adv-x="313" 
d="M131 791h127v-780h20v-11h-102l-7 25c-25 -29 -48 -42 -76 -27c-58 31 -71 186 -71 268v54c0 46 0 203 65 244c28 18 57 11 78 -23v240h-34v10zM118 505v-438c0 -37 2 -54 13 -54c15 0 34 42 34 72v403c0 40 -25 66 -35 64c-9 -2 -12 -10 -12 -47z" />
    <glyph glyph-name="e" unicode="e" horiz-adv-x="287" 
d="M262 280h-146v-142c0 -58 -2 -117 20 -129c12 -7 27 -5 41 4c54 30 69 163 71 223h13c-1 -61 -15 -199 -77 -235c-26 -15 -63 -11 -83 0c-45 23 -59 88 -68 136c-9 44 -18 171 -5 275c8 62 28 113 53 137c21 19 53 30 82 23c37 -10 62 -41 75 -83c19 -62 24 -107 24 -209
zM163 489c0 58 -7 68 -22 68c-16 0 -25 -13 -25 -68v-194h47v194z" />
    <glyph glyph-name="f" unicode="f" horiz-adv-x="197" 
d="M169 767c1 7 -3 18 -11 24c-4 3 -9 6 -21 5c-14 -1 -25 -9 -34 -26c-18 -37 3 -94 24 -143c9 -21 15 -45 15 -61h55v-10h-55v-545h40v-11h-153v11h20v545h-26v10h26v28c0 48 -6 167 53 205c18 12 43 16 64 6c26 -12 39 -40 42 -65c2 -18 0 -43 -17 -56
c-11 -7 -27 -12 -40 -7c-15 5 -26 14 -30 31c-3 17 -1 32 11 45c11 12 27 13 37 14z" />
    <glyph glyph-name="g" unicode="g" horiz-adv-x="328" 
d="M244 575c-12 -3 -18 -14 -27 -37c64 -86 65 -258 31 -345c-17 -45 -39 -70 -82 -78c-26 -4 -92 2 -104 -10c-7 -6 -11 -15 -8 -25s11 -15 24 -15c81 0 152 4 181 -28c32 -35 37 -74 32 -118c-6 -43 -23 -80 -75 -101c-28 -12 -119 -18 -159 8c-32 22 -45 54 -44 86
c1 27 15 50 46 72c-28 23 -41 56 -34 88c8 38 35 52 69 57c-63 56 -74 274 -38 368c13 36 41 68 75 75c22 4 46 3 75 -21c14 29 29 50 60 50c15 1 32 -6 42 -24c8 -14 11 -38 4 -56c-4 -12 -12 -19 -26 -20c-13 -1 -22 4 -30 16c-4 8 -7 17 -5 30c1 10 6 15 5 21
c-1 8 -8 8 -12 7zM44 -93c7 -27 34 -49 60 -56c39 -9 116 -5 148 25c18 19 26 36 21 54c-5 23 -22 33 -42 39c-20 5 -152 13 -169 -3c-19 -15 -23 -38 -18 -59zM171 501c0 45 -6 61 -22 61c-17 0 -22 -18 -22 -61v-313c0 -44 5 -61 22 -61c16 0 22 16 22 61v313z" />
    <glyph glyph-name="h" unicode="h" 
d="M29 796h113v-267c9 13 28 30 43 37c24 12 51 10 69 -3c29 -22 29 -71 29 -115v-437h20v-11h-128v11h15v494c0 16 -2 34 -14 35c-11 1 -22 -15 -25 -23c-7 -14 -9 -33 -9 -55v-451h15v-11h-128v11h20v774h-20v11z" />
    <glyph glyph-name="i" unicode="i" horiz-adv-x="197" 
d="M29 566h113v-555h20v-11h-133v11h20v544h-20v11zM39 754c0 30 25 55 55 55c31 0 56 -25 56 -55c0 -31 -25 -56 -56 -56c-30 0 -55 25 -55 56z" />
    <glyph glyph-name="j" unicode="j" horiz-adv-x="197" 
d="M49 555h-40v11h133v-565c0 -31 2 -135 -51 -171c-19 -13 -51 -17 -71 -6c-22 12 -34 30 -37 59c-3 23 4 47 20 60c9 6 22 10 36 6c13 -4 23 -15 26 -30c3 -16 1 -33 -5 -44c-9 -14 -24 -16 -36 -16c-9 0 -9 -7 -9 -10c0 -6 8 -14 22 -16c9 -1 17 -1 27 3
c20 9 31 31 34 57c2 32 -4 46 -35 106c-16 31 -14 71 -14 107v449zM34 754c0 30 25 55 55 55s55 -25 55 -55c0 -31 -25 -56 -55 -56s-55 25 -55 56z" />
    <glyph glyph-name="k" unicode="k" horiz-adv-x="347" 
d="M29 796h113v-514l51 151c17 51 28 90 18 105c-7 12 -17 17 -32 17v11h116v-11c-35 -4 -50 -9 -79 -97l-21 -61l124 -386h22v-11h-152v11h29l-76 248v-248h20v-11h-133v11h20v774h-20v11z" />
    <glyph glyph-name="l" unicode="l" horiz-adv-x="197" 
d="M29 796h113v-785h20v-11h-133v11h20v774h-20v11z" />
    <glyph glyph-name="m" unicode="m" horiz-adv-x="484" 
d="M285 11h13v-11h-119v11h13v493c0 21 0 36 -11 40c-9 4 -15 -4 -23 -16c-12 -19 -16 -32 -16 -58v-459h13v-11h-126v11h20v544h-20v11h113v-39c19 39 63 51 91 46c24 -5 46 -20 54 -40c22 37 58 48 94 36c43 -14 47 -59 47 -109v-449h20v-11h-126v11h13v493
c0 21 0 36 -11 40c-8 4 -15 -4 -22 -16c-12 -19 -17 -39 -17 -65v-452z" />
    <glyph glyph-name="n" unicode="n" 
d="M29 565l113 1v-37c9 13 28 30 43 37c24 12 51 10 69 -3c29 -22 29 -71 29 -115v-437h20v-11h-127v11h14v494c0 16 -2 34 -14 35c-11 1 -22 -15 -25 -23c-7 -14 -9 -33 -9 -55v-451h15v-11h-128v11h20v544h-20v10z" />
    <glyph glyph-name="o" unicode="o" horiz-adv-x="287" 
d="M118 570c19 6 50 7 75 -13c64 -48 69 -193 69 -237v-35c0 -55 -1 -233 -72 -280c-25 -16 -57 -18 -84 -7c-36 15 -60 68 -70 120c-9 45 -14 89 -14 179c0 35 1 72 5 106c8 62 25 117 53 145c11 11 24 18 38 22zM168 512c0 31 -9 45 -25 45c-18 0 -27 -15 -27 -45v-465
c0 -31 9 -46 27 -46c16 0 25 14 25 46v465z" />
    <glyph glyph-name="p" unicode="p" horiz-adv-x="321" 
d="M142 -172h37v-11h-150v11h20v727h-20v11h113v-29c20 35 53 43 78 32c72 -31 75 -139 76 -236c1 -51 0 -99 -3 -141c-6 -75 -14 -144 -58 -185c-13 -14 -41 -19 -55 -14c-12 5 -31 23 -38 35v-200zM142 142c0 -56 1 -101 20 -118c7 -8 17 -6 21 -1c10 10 9 43 9 94v333
c0 51 1 85 -9 94c-4 5 -14 7 -21 -1c-19 -17 -20 -61 -20 -118v-283z" />
    <glyph glyph-name="q" unicode="q" horiz-adv-x="317" 
d="M204 482l43 84h14v-740h20v-9h-132v9h19v187c-29 -22 -58 -28 -83 -15c-68 38 -63 174 -63 233v49c0 66 3 241 69 284c19 12 46 13 67 2c27 -14 42 -53 46 -84zM132 11c12 -4 20 7 26 25c7 18 10 40 10 64v408c0 29 -5 44 -22 44c-16 0 -22 -15 -22 -44v-465
c0 -13 -3 -28 8 -32z" />
    <glyph glyph-name="r" unicode="r" horiz-adv-x="268" 
d="M29 566h113v-64c10 27 24 59 53 66c13 4 31 0 45 -15c27 -28 32 -90 25 -128c-5 -19 -12 -38 -29 -44c-8 -4 -23 -4 -35 7c-14 13 -25 35 -24 69c1 26 8 43 17 60c3 8 10 17 10 24c0 6 -4 10 -8 10c-14 1 -27 -21 -32 -35c-11 -27 -22 -60 -22 -115v-390h37v-11h-150v11
h20v544h-20v11z" />
    <glyph glyph-name="s" unicode="s" horiz-adv-x="256" 
d="M175 534l21 32h14v-232h-14c-1 35 -14 202 -57 217c-11 4 -25 2 -32 -11c-20 -42 8 -119 38 -183l35 -72c38 -78 75 -180 31 -252c-19 -33 -48 -42 -77 -42c-28 0 -54 18 -68 44l-31 -38h-13v254h14v-19c0 -64 26 -205 74 -219c8 -2 23 -1 33 12c26 35 -9 121 -36 180
l-32 69c-41 87 -70 177 -35 249c12 25 32 45 60 50c27 4 52 -5 75 -39z" />
    <glyph glyph-name="t" unicode="t" horiz-adv-x="249" 
d="M130 791h12v-225h78v-11h-78v-467c0 -51 -2 -64 12 -68c7 -3 17 0 25 5c35 25 32 118 32 172v23h15v-19c0 -85 1 -168 -52 -202c-17 -10 -63 -11 -86 3c-44 27 -39 97 -39 135v418h-31v11c72 54 105 155 112 225z" />
    <glyph glyph-name="u" unicode="u" 
d="M303 0h-113v37c-9 -13 -28 -29 -44 -37c-23 -12 -51 -10 -68 3c-29 22 -29 71 -29 115v437h-20v11h113v-505c0 -15 2 -34 14 -35c11 -1 22 15 25 23c7 14 9 33 9 55v451h-18v11h111v-555h20v-11z" />
    <glyph glyph-name="v" unicode="v" horiz-adv-x="280" 
d="M9 566h140v-11h-32l51 -404l46 325c7 55 1 72 -33 79v11h86v-11c-28 -7 -32 -21 -37 -58l-69 -497h-68l-69 555h-15v11z" />
    <glyph glyph-name="w" unicode="w" horiz-adv-x="450" 
d="M10 566h141v-11h-30l49 -374l40 260l-17 114h-14v11h146v-11h-29l46 -379l43 309c5 40 7 59 -30 70v11h83v-11c-29 -7 -33 -27 -38 -60l-69 -495h-54l-59 389l-60 -389h-52l-78 555h-18v11z" />
    <glyph glyph-name="x" unicode="x" horiz-adv-x="309" 
d="M113 230l-71 325h-15v11h143v-11h-29l37 -172l33 114c12 42 8 53 -15 58v11h72v-11c-29 -5 -33 -16 -45 -58l-40 -138l76 -348h23v-11h-151v11h30l-43 195l-40 -137c-11 -41 3 -53 26 -58v-11h-82v11c29 5 32 16 44 58z" />
    <glyph glyph-name="y" unicode="y" horiz-adv-x="284" 
d="M11 566h138v-11h-28l51 -410l46 341c7 51 -11 61 -36 69v11h88v-11c-27 -6 -32 -18 -38 -55l-70 -528c-10 -71 -18 -136 -65 -153c-17 -7 -43 -10 -57 1c-22 16 -31 38 -31 66c0 22 6 46 29 59c10 5 29 6 41 0c15 -9 22 -25 23 -44c1 -26 -10 -42 -30 -58
c-4 -4 -8 -5 -9 -10c-1 -4 2 -9 7 -9c53 0 70 68 75 116c1 11 6 42 8 60h-58l-69 555h-15v11z" />
    <glyph glyph-name="z" unicode="z" horiz-adv-x="310" 
d="M61 566h213l-153 -555c44 0 63 -1 84 31c17 28 37 101 52 188h11v-230h-245l153 555c-55 -5 -77 -66 -90 -114c-10 -35 -13 -81 -14 -98h-11v223z" />
    <glyph glyph-name="braceleft" unicode="{" horiz-adv-x="493" 
d="M54 285c108 17 165 47 165 168v77c0 67 -3 119 55 168c39 34 118 44 166 44v-27c-110 -14 -151 -50 -151 -173v-76c0 -54 3 -108 -53 -150c-40 -32 -111 -48 -154 -54c43 -5 114 -21 154 -53c56 -42 53 -96 53 -150v-76c0 -123 41 -159 151 -173v-27
c-48 0 -127 10 -166 43c-58 50 -55 102 -55 169v77c0 121 -57 151 -165 168v45z" />
    <glyph glyph-name="bar" unicode="|" horiz-adv-x="90" 
d="M61 -68h-40v934h40v-934z" />
    <glyph glyph-name="braceright" unicode="}" horiz-adv-x="493" 
d="M440 240c-107 -17 -165 -47 -165 -168v-77c0 -67 4 -119 -55 -169c-39 -33 -117 -43 -166 -43v27c111 14 152 50 152 173v76c0 54 -3 108 52 150c40 32 112 48 154 53c-42 6 -114 22 -154 54c-55 42 -52 96 -52 150v76c0 123 -41 159 -152 173v27c49 0 127 -10 166 -44
c59 -49 55 -101 55 -168v-77c0 -121 58 -151 165 -168v-45z" />
    <glyph glyph-name="asciitilde" unicode="~" horiz-adv-x="386" 
d="M329 735h29c-6 -34 -28 -99 -73 -116c-58 -20 -90 21 -146 43c-20 7 -38 8 -53 -5c-9 -7 -18 -19 -26 -43h-31c8 43 27 102 78 118c57 17 93 -40 153 -52c20 -3 35 2 50 20c9 9 15 27 19 35z" />
    <glyph glyph-name="Adieresis" unicode="&#xc4;" horiz-adv-x="343" 
d="M61 90l107 714h63l71 -793h27v-11h-171v11h38l-13 159h-96l-14 -95c-6 -38 4 -57 44 -64v-11h-102v11c29 12 39 27 46 79zM89 185h93l-32 400zM87 965c15 5 38 4 54 -9c14 -11 22 -31 21 -49c-1 -20 -9 -36 -30 -48c-13 -8 -34 -10 -52 -1c-18 10 -30 25 -32 45
c-4 27 9 53 39 62zM286 965c16 5 38 4 55 -9c14 -11 21 -31 20 -49c-1 -20 -9 -36 -29 -48c-13 -8 -35 -10 -52 -1c-19 10 -31 25 -33 45c-3 27 10 53 39 62z" />
    <glyph glyph-name="Aring" unicode="&#xc5;" horiz-adv-x="343" 
d="M60 90l107 714h63l70 -793h28v-11h-171v11h38l-13 159h-96l-14 -95c-6 -38 4 -57 44 -64v-11h-102v11c29 12 39 27 46 79zM88 185h93l-32 400zM178 1067c27 6 68 3 99 -24c28 -26 40 -63 34 -97c-5 -34 -24 -65 -63 -84c-31 -14 -76 -13 -104 5c-37 22 -49 54 -50 90
c-1 28 4 64 45 95c10 8 24 12 39 15zM138 956c2 -23 15 -43 36 -54c19 -10 43 -8 58 -1c27 14 36 37 37 55c2 22 -8 45 -25 59s-44 16 -61 11c-31 -10 -49 -42 -45 -70z" />
    <glyph glyph-name="Ccedilla" unicode="&#xc7;" horiz-adv-x="328" 
d="M139 -9l-11 5c-71 38 -92 173 -98 296c0 43 -1 81 -1 118c0 54 0 108 7 177c4 44 20 169 97 208c17 9 48 13 67 3c17 -9 30 -28 43 -54l41 54h12l1 -326h-22l-1 29c-4 105 -40 264 -84 292c-8 4 -16 4 -26 0c-23 -11 -20 -60 -20 -105v-575c0 -72 -4 -102 24 -115
c9 -5 29 4 36 9c61 34 71 170 71 231c0 30 2 80 2 80h15v-59c0 -74 -10 -225 -79 -264c-18 -9 -45 -11 -67 -6l-15 -57c11 20 25 32 30 32c17 8 40 7 56 -4c28 -19 42 -51 42 -91c0 -26 -1 -114 -46 -142c-19 -12 -55 -11 -70 -2c-28 17 -38 46 -38 73c0 18 0 48 15 61
c9 7 20 5 30 5c13 -4 20 -17 20 -28c0 -16 4 -44 -11 -57c-10 -11 -27 -10 -39 -5c0 -15 10 -35 33 -46c13 -7 25 0 30 0c14 8 12 30 12 56v115c0 22 1 52 -10 59c-5 0 -14 5 -21 0c-27 -19 -46 -70 -46 -78h-7z" />
    <glyph glyph-name="Eacute" unicode="&#xc9;" horiz-adv-x="369" 
d="M266 190h-15c-2 26 -3 68 -10 113c-11 59 -59 85 -59 85v-377c32 0 53 2 78 32c32 38 53 113 60 253l1 24h14v-320h-306v11h36v769h-36v11h306v-304h-16l-1 22c-6 104 -20 234 -84 263c-20 9 -33 8 -52 8v-373c34 0 48 26 59 85c7 45 8 87 10 113h15v-415zM150 947
c52 63 82 103 121 91c16 -4 25 -18 27 -31c7 -32 -26 -55 -97 -100l-85 -55h-43z" />
    <glyph glyph-name="Ntilde" unicode="&#xd1;" horiz-adv-x="364" 
d="M271 701c0 48 1 69 -48 79v11h110v-11c-49 -10 -48 -31 -48 -79v-701h-83l-123 731v-641c0 -49 -1 -69 48 -79v-11h-110v11c49 10 48 30 48 79v690h-36v11h155l87 -517v427zM319 974h29c-5 -35 -28 -100 -73 -116c-58 -21 -90 21 -146 42c-19 8 -38 9 -53 -4
c-9 -8 -17 -20 -26 -44h-30c7 44 27 102 78 119c56 17 92 -40 153 -52c19 -4 34 2 49 19c9 10 16 27 19 36z" />
    <glyph glyph-name="Odieresis" unicode="&#xd6;" horiz-adv-x="347" 
d="M142 799c19 7 69 8 96 -12c61 -45 78 -160 81 -248c2 -54 3 -96 3 -143s1 -92 -3 -145c-8 -101 -28 -217 -96 -255c-22 -13 -72 -14 -98 2c-63 39 -83 140 -91 246c-5 50 -5 86 -5 152c0 44 1 88 4 141c4 131 39 237 109 262zM207 730c0 53 -15 63 -30 63
s-33 -10 -33 -63v-670c0 -53 18 -63 33 -63s30 10 30 63v670zM60 965c15 5 38 4 54 -9c14 -11 22 -31 20 -49c-1 -20 -8 -36 -29 -48c-13 -8 -35 -10 -52 -1c-18 10 -30 25 -32 45c-4 27 9 53 39 62zM259 965c15 5 38 4 54 -9c15 -11 22 -31 21 -49c-1 -20 -9 -36 -29 -48
c-13 -8 -35 -10 -52 -1c-19 10 -31 25 -33 45c-3 27 10 53 39 62z" />
    <glyph glyph-name="Udieresis" unicode="&#xdc;" horiz-adv-x="386" 
d="M371 791v-11c-49 -13 -52 -51 -52 -87v-524c0 -57 2 -135 -54 -169c-34 -21 -113 -17 -146 2c-58 34 -54 122 -54 168v610h-36v11h185v-11h-32v-637c0 -79 0 -116 20 -131c13 -10 41 -9 55 0c47 30 45 116 45 168v513c0 50 -3 74 -51 87v11h120zM87 965c15 5 38 4 54 -9
c14 -11 22 -31 21 -49c-1 -20 -9 -36 -30 -48c-13 -8 -34 -10 -52 -1c-18 10 -30 25 -32 45c-4 27 9 53 39 62zM286 965c16 5 38 4 55 -9c14 -11 21 -31 20 -49c-1 -20 -9 -36 -29 -48c-13 -8 -35 -10 -52 -1c-19 10 -31 25 -33 45c-3 27 10 53 39 62z" />
    <glyph glyph-name="aacute" unicode="&#xe1;" horiz-adv-x="320" 
d="M309 37c-5 -12 -17 -26 -36 -36c-12 -6 -22 -11 -43 -10c-38 2 -52 22 -63 57c-13 -32 -33 -51 -61 -56c-22 -3 -47 3 -63 17c-20 18 -21 68 -21 123v60c0 41 -4 90 31 115c12 9 41 19 54 25c26 11 35 14 54 20v95c0 55 2 100 -16 110c-7 5 -20 7 -42 -3s-35 -29 -39 -45
c13 7 46 8 63 -13c12 -16 15 -39 7 -61c-6 -19 -17 -29 -39 -35c-16 -4 -38 -1 -53 13c-16 15 -20 43 -15 70c7 33 32 64 71 80c41 17 104 14 134 -10c37 -28 33 -96 33 -137v-347c0 -25 -3 -36 9 -42c11 -5 22 4 26 13zM161 335c-18 -6 -33 -13 -40 -26
c-5 -10 -5 -29 -5 -43v-192c0 -25 1 -39 5 -44c6 -5 16 -3 21 0c21 14 19 73 19 126v179zM120 708c52 63 83 103 122 91c16 -4 25 -18 27 -31c6 -32 -26 -54 -98 -100l-84 -54h-44z" />
    <glyph glyph-name="agrave" unicode="&#xe0;" horiz-adv-x="320" 
d="M309 37c-5 -12 -17 -26 -36 -36c-12 -6 -22 -11 -43 -10c-38 2 -52 22 -63 57c-13 -32 -33 -51 -61 -56c-22 -3 -47 3 -63 17c-20 18 -21 68 -21 123v60c0 41 -4 90 31 115c12 9 41 19 54 25c26 11 35 14 54 20v95c0 55 2 100 -16 110c-7 5 -20 7 -42 -3s-35 -29 -39 -45
c13 7 46 8 63 -13c12 -16 15 -39 7 -61c-6 -19 -17 -29 -39 -35c-16 -4 -38 -1 -53 13c-16 15 -20 43 -15 70c7 33 32 64 71 80c41 17 104 14 134 -10c37 -28 33 -96 33 -137v-347c0 -25 -3 -36 9 -42c11 -5 22 4 26 13zM161 335c-18 -6 -33 -13 -40 -26
c-5 -10 -5 -29 -5 -43v-192c0 -25 1 -39 5 -44c6 -5 16 -3 21 0c21 14 19 73 19 126v179zM269 614h-43l-85 54c-72 46 -104 68 -98 100c3 13 11 27 27 31c40 12 70 -28 122 -91z" />
    <glyph glyph-name="acircumflex" unicode="&#xe2;" horiz-adv-x="320" 
d="M317 37c-6 -12 -18 -26 -36 -36c-12 -6 -23 -11 -43 -10c-38 2 -53 22 -63 57c-13 -32 -33 -51 -61 -56c-23 -3 -48 3 -63 17c-21 18 -22 68 -22 123v60c0 41 -3 90 32 115c12 9 41 19 54 25c26 11 35 14 53 20v95c0 55 2 100 -15 110c-8 5 -21 7 -42 -3
c-22 -10 -35 -29 -39 -45c13 7 45 8 62 -13c12 -16 16 -39 8 -61c-6 -19 -17 -29 -39 -35c-16 -4 -38 -1 -53 13c-16 15 -21 43 -15 70c6 33 31 64 70 80c41 17 104 14 135 -10c37 -28 32 -96 32 -137v-347c0 -25 -2 -36 10 -42c11 -5 22 4 26 13zM168 335
c-17 -6 -32 -13 -39 -26c-5 -10 -5 -29 -5 -43v-192c0 -25 1 -39 5 -44c5 -5 15 -3 21 0c20 14 18 73 18 126v179zM318 614h-41l-114 119l-114 -119h-41l119 181h71z" />
    <glyph glyph-name="adieresis" unicode="&#xe4;" horiz-adv-x="320" 
d="M309 37c-5 -12 -17 -26 -36 -36c-12 -6 -22 -11 -43 -10c-38 2 -52 22 -63 57c-13 -32 -33 -51 -61 -56c-22 -3 -47 3 -63 17c-20 18 -21 68 -21 123v60c0 41 -4 90 31 115c12 9 41 19 54 25c26 11 35 14 54 20v95c0 55 2 100 -16 110c-7 5 -20 7 -42 -3s-35 -29 -39 -45
c13 7 46 8 63 -13c12 -16 15 -39 7 -61c-6 -19 -17 -29 -39 -35c-16 -4 -38 -1 -53 13c-16 15 -20 43 -15 70c7 33 32 64 71 80c41 17 104 14 134 -10c37 -28 33 -96 33 -137v-347c0 -25 -3 -36 9 -42c11 -5 22 4 26 13zM161 335c-18 -6 -33 -13 -40 -26
c-5 -10 -5 -29 -5 -43v-192c0 -25 1 -39 5 -44c6 -5 16 -3 21 0c21 14 19 73 19 126v179zM28 727c15 4 38 3 54 -10c15 -11 22 -30 21 -49s-9 -36 -29 -48c-13 -7 -35 -9 -52 -1c-19 10 -31 25 -33 46c-3 26 10 52 39 62zM228 727c15 4 38 3 54 -10c14 -11 22 -30 21 -49
s-9 -36 -30 -48c-13 -7 -34 -9 -52 -1c-18 10 -30 25 -32 46c-4 26 9 52 39 62z" />
    <glyph glyph-name="atilde" unicode="&#xe3;" horiz-adv-x="320" 
d="M309 37c-5 -12 -17 -26 -36 -36c-12 -6 -22 -11 -43 -10c-38 2 -52 22 -63 57c-13 -32 -33 -51 -61 -56c-22 -3 -47 3 -63 17c-20 18 -21 68 -21 123v60c0 41 -4 90 31 115c12 9 41 19 54 25c26 11 35 14 54 20v95c0 55 2 100 -16 110c-7 5 -20 7 -42 -3s-35 -29 -39 -45
c13 7 46 8 63 -13c12 -16 15 -39 7 -61c-6 -19 -17 -29 -39 -35c-16 -4 -38 -1 -53 13c-16 15 -20 43 -15 70c7 33 32 64 71 80c41 17 104 14 134 -10c37 -28 33 -96 33 -137v-347c0 -25 -3 -36 9 -42c11 -5 22 4 26 13zM161 335c-18 -6 -33 -13 -40 -26
c-5 -10 -5 -29 -5 -43v-192c0 -25 1 -39 5 -44c6 -5 16 -3 21 0c21 14 19 73 19 126v179zM291 735h29c-5 -34 -28 -99 -73 -116c-58 -20 -90 21 -146 43c-20 7 -38 8 -53 -5c-9 -7 -18 -19 -26 -43h-31c8 43 27 102 78 118c57 17 93 -40 153 -52c20 -3 35 2 50 20
c9 9 15 27 19 35z" />
    <glyph glyph-name="aring" unicode="&#xe5;" horiz-adv-x="320" 
d="M309 37c-5 -12 -17 -26 -36 -36c-12 -6 -22 -11 -43 -10c-38 2 -52 22 -63 57c-13 -32 -33 -51 -61 -56c-22 -3 -47 3 -63 17c-20 18 -21 68 -21 123v60c0 41 -4 90 31 115c12 9 41 19 54 25c26 11 35 14 54 20v95c0 55 2 100 -16 110c-7 5 -20 7 -42 -3s-35 -29 -39 -45
c13 7 46 8 63 -13c12 -16 15 -39 7 -61c-6 -19 -17 -29 -39 -35c-16 -4 -38 -1 -53 13c-16 15 -20 43 -15 70c7 33 32 64 71 80c41 17 104 14 134 -10c37 -28 33 -96 33 -137v-347c0 -25 -3 -36 9 -42c11 -5 22 4 26 13zM161 335c-18 -6 -33 -13 -40 -26
c-5 -10 -5 -29 -5 -43v-192c0 -25 1 -39 5 -44c6 -5 16 -3 21 0c21 14 19 73 19 126v179zM121 829c28 5 69 3 99 -24c28 -26 40 -63 35 -98c-6 -33 -24 -65 -63 -83c-31 -14 -76 -13 -104 4c-37 23 -49 54 -50 90c-1 28 3 64 44 95c10 8 24 12 39 16zM81 717
c3 -23 16 -42 36 -53s44 -9 59 -1c27 14 35 37 37 54c2 23 -8 45 -25 60c-18 14 -45 16 -61 10c-32 -9 -49 -42 -46 -70z" />
    <glyph glyph-name="ccedilla" unicode="&#xe7;" horiz-adv-x="274" 
d="M104 -2l-2 1c-48 22 -62 75 -69 121c-12 75 -32 354 51 430c20 18 48 28 70 22c17 -5 28 -13 50 -46l31 48h16v-235h-16c-4 31 -30 197 -76 218c-7 5 -16 6 -23 -1c-16 -10 -13 -80 -13 -93v-345c0 -40 -3 -93 19 -106c7 -4 22 -7 36 3c60 41 60 127 60 204v32h14
c0 -102 0 -208 -63 -249c-18 -11 -52 -14 -76 -6l-15 -58c10 21 25 33 29 33c17 7 40 6 56 -5c28 -18 43 -51 43 -91c0 -26 -1 -114 -47 -142c-18 -12 -54 -11 -69 -2c-29 17 -38 47 -38 74c0 17 0 47 15 61c8 6 19 5 29 5c13 -4 21 -17 21 -28c0 -17 3 -45 -11 -58
c-11 -11 -27 -10 -39 -4c0 -15 10 -36 32 -47c13 -6 25 0 31 0c14 9 12 31 12 57v115c0 21 1 52 -10 58c-6 0 -14 6 -22 0c-27 -18 -45 -69 -45 -78h-8z" />
    <glyph glyph-name="eacute" unicode="&#xe9;" horiz-adv-x="287" 
d="M262 280h-146v-142c0 -58 -2 -117 20 -129c12 -7 27 -5 41 4c54 30 69 163 71 223h13c-1 -61 -15 -199 -77 -235c-26 -15 -63 -11 -83 0c-45 23 -59 88 -68 136c-9 44 -18 171 -5 275c8 62 28 113 53 137c21 19 53 30 82 23c37 -10 62 -41 75 -83c19 -62 24 -107 24 -209
zM163 489c0 58 -7 68 -22 68c-16 0 -25 -13 -25 -68v-194h47v194zM99 708c52 63 82 103 121 91c16 -4 25 -18 27 -31c7 -32 -26 -54 -97 -100l-85 -54h-43z" />
    <glyph glyph-name="egrave" unicode="&#xe8;" horiz-adv-x="287" 
d="M262 280h-146v-142c0 -58 -2 -117 20 -129c12 -7 27 -5 41 4c54 30 69 163 71 223h13c-1 -61 -15 -199 -77 -235c-26 -15 -63 -11 -83 0c-45 23 -59 88 -68 136c-9 44 -18 171 -5 275c8 62 28 113 53 137c21 19 53 30 82 23c37 -10 62 -41 75 -83c19 -62 24 -107 24 -209
zM163 489c0 58 -7 68 -22 68c-16 0 -25 -13 -25 -68v-194h47v194zM243 614h-43l-85 54c-72 46 -104 68 -98 100c3 13 11 27 27 31c40 12 70 -28 122 -91z" />
    <glyph glyph-name="ecircumflex" unicode="&#xea;" horiz-adv-x="287" 
d="M262 280h-146v-142c0 -58 -2 -117 20 -129c12 -7 27 -5 41 4c54 30 69 163 71 223h13c-1 -61 -15 -199 -77 -235c-26 -15 -63 -11 -83 0c-45 23 -59 88 -68 136c-9 44 -18 171 -5 275c8 62 28 113 53 137c21 19 53 30 82 23c37 -10 62 -41 75 -83c19 -62 24 -107 24 -209
zM163 489c0 58 -7 68 -22 68c-16 0 -25 -13 -25 -68v-194h47v194zM299 614h-41l-114 119l-114 -119h-41l119 181h72z" />
    <glyph glyph-name="edieresis" unicode="&#xeb;" horiz-adv-x="287" 
d="M262 280h-146v-142c0 -58 -2 -117 20 -129c12 -7 27 -5 41 4c54 30 69 163 71 223h13c-1 -61 -15 -199 -77 -235c-26 -15 -63 -11 -83 0c-45 23 -59 88 -68 136c-9 44 -18 171 -5 275c8 62 28 113 53 137c21 19 53 30 82 23c37 -10 62 -41 75 -83c19 -62 24 -107 24 -209
zM163 489c0 58 -7 68 -22 68c-16 0 -25 -13 -25 -68v-194h47v194zM28 727c15 4 38 3 54 -10c15 -11 22 -30 21 -49s-9 -36 -29 -48c-13 -7 -35 -9 -52 -1c-19 10 -31 25 -33 46c-3 26 10 52 39 62zM228 727c15 4 38 3 54 -10c14 -11 22 -30 21 -49s-9 -36 -30 -48
c-13 -7 -34 -9 -52 -1c-18 10 -30 25 -32 46c-4 26 9 52 39 62z" />
    <glyph glyph-name="iacute" unicode="&#xed;" horiz-adv-x="197" 
d="M29 566h113v-555h20v-11h-133v11h20v544h-20v11zM41 708c52 63 83 103 122 91c16 -4 25 -18 27 -31c6 -32 -26 -54 -98 -100l-84 -54h-44z" />
    <glyph glyph-name="igrave" unicode="&#xec;" horiz-adv-x="197" 
d="M29 566h113v-555h20v-11h-133v11h20v544h-20v11zM211 614h-43l-84 54c-72 46 -105 68 -98 100c2 13 11 27 27 31c39 12 69 -28 121 -91z" />
    <glyph glyph-name="icircumflex" unicode="&#xee;" horiz-adv-x="197" 
d="M29 566h113v-555h20v-11h-133v11h20v544h-20v11zM246 614h-41l-114 119l-114 -119h-41l119 181h72z" />
    <glyph glyph-name="idieresis" unicode="&#xef;" horiz-adv-x="197" 
d="M29 566h113v-555h20v-11h-133v11h20v544h-20v11zM-18 727c15 4 38 3 54 -10c14 -11 21 -30 20 -49s-8 -36 -29 -48c-13 -7 -35 -9 -52 -1c-18 10 -30 25 -32 46c-4 26 9 52 39 62zM181 727c15 4 38 3 54 -10c14 -11 22 -30 21 -49s-9 -36 -29 -48c-13 -7 -35 -9 -52 -1
c-19 10 -31 25 -33 46c-3 26 10 52 39 62z" />
    <glyph glyph-name="ntilde" unicode="&#xf1;" 
d="M29 565l113 1v-37c9 13 28 30 43 37c24 12 51 10 69 -3c29 -22 29 -71 29 -115v-437h20v-11h-127v11h14v494c0 16 -2 34 -14 35c-11 1 -22 -15 -25 -23c-7 -14 -9 -33 -9 -55v-451h15v-11h-128v11h20v544h-20v10zM296 735h29c-5 -34 -28 -99 -72 -116
c-59 -20 -90 21 -147 43c-19 7 -38 8 -53 -5c-9 -7 -17 -19 -26 -43h-30c7 43 27 102 78 118c56 17 92 -40 153 -52c19 -3 34 2 50 20c8 9 15 27 18 35z" />
    <glyph glyph-name="oacute" unicode="&#xf3;" horiz-adv-x="287" 
d="M118 570c19 6 50 7 75 -13c64 -48 69 -193 69 -237v-35c0 -55 -1 -233 -72 -280c-25 -16 -57 -18 -84 -7c-36 15 -60 68 -70 120c-9 45 -14 89 -14 179c0 35 1 72 5 106c8 62 25 117 53 145c11 11 24 18 38 22zM168 512c0 31 -9 45 -25 45c-18 0 -27 -15 -27 -45v-465
c0 -31 9 -46 27 -46c16 0 25 14 25 46v465zM111 708c52 63 82 103 121 91c16 -4 25 -18 27 -31c7 -32 -26 -54 -97 -100l-85 -54h-43z" />
    <glyph glyph-name="ograve" unicode="&#xf2;" horiz-adv-x="287" 
d="M118 570c19 6 50 7 75 -13c64 -48 69 -193 69 -237v-35c0 -55 -1 -233 -72 -280c-25 -16 -57 -18 -84 -7c-36 15 -60 68 -70 120c-9 45 -14 89 -14 179c0 35 1 72 5 106c8 62 25 117 53 145c11 11 24 18 38 22zM168 512c0 31 -9 45 -25 45c-18 0 -27 -15 -27 -45v-465
c0 -31 9 -46 27 -46c16 0 25 14 25 46v465zM259 614h-43l-85 54c-71 46 -104 68 -97 100c2 13 10 27 27 31c39 12 69 -28 121 -91z" />
    <glyph glyph-name="ocircumflex" unicode="&#xf4;" horiz-adv-x="287" 
d="M118 570c19 6 50 7 75 -13c64 -48 69 -193 69 -237v-35c0 -55 -1 -233 -72 -280c-25 -16 -57 -18 -84 -7c-36 15 -60 68 -70 120c-9 45 -14 89 -14 179c0 35 1 72 5 106c8 62 25 117 53 145c11 11 24 18 38 22zM168 512c0 31 -9 45 -25 45c-18 0 -27 -15 -27 -45v-465
c0 -31 9 -46 27 -46c16 0 25 14 25 46v465zM290 614h-42l-114 119l-113 -119h-42l120 181h71z" />
    <glyph glyph-name="odieresis" unicode="&#xf6;" horiz-adv-x="287" 
d="M118 570c19 6 50 7 75 -13c64 -48 69 -193 69 -237v-35c0 -55 -1 -233 -72 -280c-25 -16 -57 -18 -84 -7c-36 15 -60 68 -70 120c-9 45 -14 89 -14 179c0 35 1 72 5 106c8 62 25 117 53 145c11 11 24 18 38 22zM168 512c0 31 -9 45 -25 45c-18 0 -27 -15 -27 -45v-465
c0 -31 9 -46 27 -46c16 0 25 14 25 46v465zM29 727c15 4 38 3 55 -10c14 -11 21 -30 20 -49s-9 -36 -29 -48c-13 -7 -35 -9 -52 -1c-19 10 -31 25 -33 46c-3 26 10 52 39 62zM229 727c15 4 38 3 54 -10c14 -11 22 -30 21 -49s-9 -36 -30 -48c-13 -7 -34 -9 -52 -1
c-18 10 -30 25 -32 46c-3 26 10 52 39 62z" />
    <glyph glyph-name="otilde" unicode="&#xf5;" horiz-adv-x="287" 
d="M118 570c19 6 50 7 75 -13c64 -48 69 -193 69 -237v-35c0 -55 -1 -233 -72 -280c-25 -16 -57 -18 -84 -7c-36 15 -60 68 -70 120c-9 45 -14 89 -14 179c0 35 1 72 5 106c8 62 25 117 53 145c11 11 24 18 38 22zM168 512c0 31 -9 45 -25 45c-18 0 -27 -15 -27 -45v-465
c0 -31 9 -46 27 -46c16 0 25 14 25 46v465zM279 735h29c-5 -34 -28 -99 -73 -116c-58 -20 -90 21 -146 43c-20 7 -38 8 -53 -5c-9 -7 -18 -19 -26 -43h-31c8 43 28 102 78 118c57 17 93 -40 153 -52c20 -3 35 2 50 20c9 9 15 27 19 35z" />
    <glyph glyph-name="uacute" unicode="&#xfa;" 
d="M303 0h-113v37c-9 -13 -28 -29 -44 -37c-23 -12 -51 -10 -68 3c-29 22 -29 71 -29 115v437h-20v11h113v-505c0 -15 2 -34 14 -35c11 -1 22 15 25 23c7 14 9 33 9 55v451h-18v11h111v-555h20v-11zM128 708c52 63 82 103 121 91c17 -4 25 -18 28 -31
c6 -32 -26 -54 -98 -100l-85 -54h-43z" />
    <glyph glyph-name="ugrave" unicode="&#xf9;" 
d="M303 0h-113v37c-9 -13 -28 -29 -44 -37c-23 -12 -51 -10 -68 3c-29 22 -29 71 -29 115v437h-20v11h113v-505c0 -15 2 -34 14 -35c11 -1 22 15 25 23c7 14 9 33 9 55v451h-18v11h111v-555h20v-11zM277 614h-44l-84 54c-72 46 -105 68 -98 100c2 13 11 27 27 31
c39 12 70 -28 122 -91z" />
    <glyph glyph-name="ucircumflex" unicode="&#xfb;" 
d="M303 0h-113v37c-9 -13 -28 -29 -44 -37c-23 -12 -51 -10 -68 3c-29 22 -29 71 -29 115v437h-20v11h113v-505c0 -15 2 -34 14 -35c11 -1 22 15 25 23c7 14 9 33 9 55v451h-18v11h111v-555h20v-11zM318 614h-41l-114 119l-114 -119h-41l119 181h71z" />
    <glyph glyph-name="udieresis" unicode="&#xfc;" 
d="M303 0h-113v37c-9 -13 -28 -29 -44 -37c-23 -12 -51 -10 -68 3c-29 22 -29 71 -29 115v437h-20v11h113v-505c0 -15 2 -34 14 -35c11 -1 22 15 25 23c7 14 9 33 9 55v451h-18v11h111v-555h20v-11zM47 727c15 4 38 3 54 -10c14 -11 22 -30 20 -49c-1 -19 -8 -36 -29 -48
c-13 -7 -35 -9 -52 -1c-18 10 -30 25 -32 46c-4 26 9 52 39 62zM246 727c15 4 38 3 54 -10c15 -11 22 -30 21 -49s-9 -36 -29 -48c-13 -7 -35 -9 -52 -1c-19 10 -31 25 -33 46c-3 26 10 52 39 62z" />
    <glyph glyph-name="degree" unicode="&#xb0;" horiz-adv-x="200" 
d="M124 586l22 -59c22 -52 49 -125 15 -178c-18 -25 -37 -38 -62 -38c-21 0 -43 8 -58 31c-24 35 -24 83 -5 131c10 23 18 38 38 67l-14 36c-20 49 -47 129 -9 181c16 21 38 28 56 26c17 -1 32 -9 43 -29c24 -50 9 -106 -26 -168zM134 741c-5 17 -14 34 -28 37
c-9 2 -17 -3 -24 -9c-19 -22 4 -85 15 -115l23 -61c19 44 25 114 14 148zM77 531c-23 -48 -41 -147 -13 -193c6 -12 17 -19 28 -19c8 0 18 2 25 14c22 31 1 94 -18 144z" />
    <glyph glyph-name="cent" unicode="&#xa2;" horiz-adv-x="274" 
d="M192 664c4 -6 9 -11 13 -19l31 48h16v-234h-16c-5 37 -21 132 -48 186l-64 -326v-81c0 -41 -3 -94 19 -107c7 -4 22 -6 36 3c60 42 56 126 60 204v32h14c0 -102 0 -207 -63 -249c-20 -13 -64 -14 -87 -3c-6 3 -12 7 -17 10l-31 -157h-14l33 168c-24 25 -35 66 -40 101
c-12 75 -32 353 51 429c20 19 51 28 70 22c10 -3 16 -6 25 -14l24 122h14zM177 662c-6 7 -11 13 -16 15c-9 4 -17 5 -24 -1c-16 -11 -13 -81 -13 -94v-192z" />
    <glyph glyph-name="sterling" unicode="&#xa3;" horiz-adv-x="478" 
d="M177 78c-72 42 -111 15 -111 -17c0 -21 24 -37 46 -37c27 0 51 30 65 54zM203 315c-55 122 -92 209 -67 343c8 48 31 107 82 127c34 14 72 5 95 -12c73 -50 81 -171 74 -231c-4 -40 -13 -78 -42 -94c-15 -9 -34 -4 -45 3c-25 16 -29 50 -29 76c0 30 11 60 32 70
c23 10 43 2 63 -16c5 50 1 81 -4 95c-11 39 -33 79 -71 96c-17 8 -31 5 -38 -1c-17 -12 -17 -52 -17 -103v-152c0 -67 13 -123 13 -164v-37h101v-29h-103c-6 -67 -26 -148 -45 -186c34 -20 69 -46 121 -46c38 0 127 20 127 123h11c0 -140 -65 -182 -131 -182
c-58 0 -123 59 -142 75c-8 -17 -33 -53 -58 -67c-43 -25 -106 -2 -106 57c0 51 37 74 70 74c38 0 73 -9 97 -28c13 32 40 112 23 180h-106v29h95z" />
    <glyph glyph-name="section" unicode="&#xa7;" horiz-adv-x="200" 
d="M90 796h15v-26c25 0 52 -21 59 -54c4 -23 0 -36 -8 -44c-6 -5 -14 -7 -24 -5c-8 2 -15 10 -16 21c-2 27 17 33 36 30c0 4 -3 17 -15 29c-9 9 -19 12 -32 12v-122c54 -76 84 -123 63 -184c-11 -30 -35 -41 -63 -46v-52h-16v52c-27 4 -52 19 -60 50c-4 18 -4 39 6 54
c4 6 13 10 22 9c9 -2 15 -5 19 -13c5 -12 2 -29 -1 -34c-7 -11 -19 -15 -32 -10c-1 -6 4 -20 13 -31c8 -9 22 -14 33 -14v136l-14 21c-26 39 -41 78 -42 106c-2 44 18 79 57 88v27zM65 710c0 -13 5 -32 24 -55v100c-22 -8 -24 -30 -24 -45zM105 533v-115c12 1 25 10 28 25
c3 8 3 15 -1 28c-3 14 -11 33 -27 62z" />
    <glyph glyph-name="bullet" unicode="&#x2022;" horiz-adv-x="161" 
d="M56 572c11 5 29 5 42 -3c15 -8 23 -26 26 -49c2 -21 -4 -46 -21 -61c-9 -8 -25 -12 -40 -7c-15 6 -26 17 -33 38c-6 23 -2 69 26 82z" />
    <glyph glyph-name="germandbls" unicode="&#xdf;" horiz-adv-x="408" 
d="M245 559c-30 -36 22 -138 52 -202l35 -72c38 -78 75 -180 31 -252c-19 -33 -48 -42 -77 -42c-28 0 -54 18 -68 44l-31 -38h-13v254h14v-19c0 -64 26 -205 73 -219c9 -2 24 -1 34 12c26 35 -9 121 -36 180l-32 69c-40 87 -86 182 -35 248c34 43 77 76 57 166
c-11 54 -47 108 -96 105c-21 -1 -40 -10 -50 -28c-19 -37 3 -94 24 -142c9 -21 15 -45 15 -61v-562h-113v11h20v541h-26v10h26v28c0 48 -1 158 53 200c37 28 169 44 207 -64c28 -80 -35 -134 -64 -167z" />
    <glyph glyph-name="trademark" unicode="&#x2122;" horiz-adv-x="210" 
d="M154 692h12l-18 -84c4 -5 9 -14 10 -18l24 28h3v-159h-9c0 36 -21 96 -34 125l-49 -228c0 -65 0 -89 11 -100c6 -5 15 -9 27 -1c40 24 43 134 43 160h9c0 -43 -3 -136 -39 -166c-19 -17 -53 -16 -75 -2l-19 -91h-12l22 99c-10 11 -19 31 -22 41c-18 54 -22 238 17 292
c23 31 58 44 83 28zM100 603c-3 -4 -7 -17 -7 -72v-120l40 186c-6 14 -23 19 -33 6z" />
    <glyph glyph-name="acute" unicode="&#xb4;" horiz-adv-x="284" 
d="M101 708c52 63 82 103 121 91c17 -4 25 -18 27 -31c7 -32 -26 -54 -97 -100l-85 -54h-43z" />
    <glyph glyph-name="dieresis" unicode="&#xa8;" horiz-adv-x="380" 
d="M77 727c15 4 38 3 54 -10c14 -11 22 -30 21 -49s-9 -36 -29 -48c-13 -7 -35 -9 -53 -1c-18 10 -30 25 -32 46c-3 26 10 52 39 62zM277 727c15 4 38 3 54 -10c14 -11 21 -30 20 -49s-8 -36 -29 -48c-13 -7 -35 -9 -52 -1c-18 10 -30 25 -32 46c-4 26 9 52 39 62z" />
    <glyph glyph-name="notequal" unicode="&#x2260;" horiz-adv-x="161" 
d="M29 738c0 34 6 55 25 69c11 8 32 10 45 3c19 -10 27 -27 30 -46c7 -39 -5 -61 -17 -71c-13 -11 -38 -10 -50 -2c8 -63 36 -107 63 -142l-10 -9c-60 73 -86 142 -86 198z" />
    <glyph glyph-name="Oslash" unicode="&#xd8;" horiz-adv-x="347" 
d="M207 523v207c0 53 -15 63 -30 63s-33 -10 -33 -63v-369zM144 278v-218c0 -53 18 -63 33 -63s30 10 30 63v379zM302 680c13 -46 17 -96 17 -141c0 -54 3 -96 3 -143s1 -92 -3 -145c-8 -101 -28 -217 -96 -255c-22 -13 -72 -14 -98 2s-46 43 -59 78l-32 -83h-33l50 128
c-8 38 -17 80 -17 123c-5 50 -5 86 -5 152c0 44 4 88 4 141c4 131 39 237 109 262c19 7 69 8 96 -12c20 -15 35 -38 47 -64l25 64h33z" />
    <glyph glyph-name="infinity" unicode="&#x221e;" horiz-adv-x="284" 
d="M11 566h138v-11h-28l51 -410l46 341c7 51 -11 61 -36 69v11h88v-11c-27 -6 -32 -18 -38 -55l-70 -528c-10 -71 -18 -136 -65 -153c-17 -7 -43 -10 -57 1c-22 16 -31 38 -31 66c0 22 6 46 29 59c10 5 29 6 41 0c15 -9 22 -25 23 -44c1 -26 -10 -42 -30 -58
c-4 -4 -8 -5 -9 -10c-1 -4 2 -9 7 -9c53 0 70 68 75 116c1 11 6 42 8 60h-58l-69 555h-15v11zM106 708c52 63 83 103 122 91c16 -4 25 -18 27 -31c6 -32 -26 -54 -98 -100l-84 -54h-44z" />
    <glyph glyph-name="plusminus" unicode="&#xb1;" horiz-adv-x="289" 
d="M29 738c0 34 6 55 25 69c11 8 32 10 45 3c19 -10 27 -27 30 -46c7 -39 -5 -61 -17 -71c-13 -11 -38 -10 -50 -2c8 -63 36 -107 63 -142l-10 -9c-60 73 -86 142 -86 198zM156 738c0 34 6 55 25 69c11 8 32 10 45 3c19 -10 27 -27 30 -46c6 -39 -5 -61 -17 -71
c-13 -11 -38 -10 -50 -2c8 -63 36 -107 63 -142l-10 -9c-60 73 -86 142 -86 198z" />
    <glyph glyph-name="ordfeminine" unicode="&#xaa;" horiz-adv-x="200" 
d="M117 744c0 23 -3 30 -17 30c-12 0 -16 -7 -16 -30v-203c0 -14 1 -26 5 -27c5 -1 11 6 15 13c2 6 4 9 8 19c3 11 5 23 5 38v160zM48 359c6 -21 17 -35 32 -40c9 -2 17 -2 22 2c11 8 11 24 11 63v143c-10 -17 -22 -26 -38 -26c-11 -1 -23 3 -32 17c-27 39 -22 157 -10 198
c6 20 23 51 48 62c14 5 37 3 52 -9c26 -22 34 -61 38 -103c6 -42 6 -67 6 -111c0 -37 0 -58 -2 -94c-4 -64 -11 -117 -47 -142c-16 -11 -43 -12 -61 -2c-27 16 -36 52 -38 75c-1 15 1 38 19 49c6 6 16 7 25 3c12 -6 18 -19 20 -34c2 -12 -1 -34 -14 -47c-7 -7 -18 -8 -31 -4
z" />
    <glyph glyph-name="ordmasculine" unicode="&#xba;" horiz-adv-x="200" 
d="M91 781c12 2 30 3 46 -8c35 -26 41 -104 42 -137c1 -34 2 -23 2 -87c0 -73 -1 -69 -3 -105c-2 -31 -9 -107 -50 -127c-15 -8 -35 -7 -48 1c-31 17 -39 58 -46 106c-7 50 -6 187 -1 240c4 50 17 107 58 117zM88 348c0 -23 4 -31 17 -31s16 7 16 31v397c0 23 -3 30 -16 30
s-17 -7 -17 -30v-397z" />
    <glyph glyph-name="oslash" unicode="&#xf8;" horiz-adv-x="287" 
d="M168 410v102c0 31 -9 45 -25 45c-18 0 -27 -15 -27 -45v-242zM116 182v-135c0 -31 9 -46 27 -46c16 0 25 14 25 46v275zM234 499c26 -62 28 -147 28 -179v-35c0 -55 -1 -233 -72 -280c-25 -16 -57 -18 -84 -7c-17 7 -31 23 -43 42l-17 -47h-33l33 87c-5 12 -10 25 -10 38
c-9 45 -14 89 -14 179c0 35 1 72 5 106c8 62 25 117 53 145c11 11 24 18 38 22c19 6 50 7 75 -13c9 -6 16 -14 22 -22l13 34h32z" />
    <glyph glyph-name="exclamdown" unicode="&#xa1;" horiz-adv-x="200" 
d="M104 781h28v-460h23v-6h-114v6h29v402c-5 -3 -17 -7 -26 -8v7c31 9 50 21 60 59z" />
    <glyph glyph-name="florin" unicode="&#x192;" horiz-adv-x="287" 
d="M106 361c-43 26 -66 10 -66 -10c0 -13 14 -22 27 -22c17 0 31 18 39 32zM121 503c-32 74 -55 126 -40 206c6 30 19 64 50 76c20 9 43 4 57 -6c44 -31 48 -103 44 -139c-2 -24 -7 -47 -25 -56c-10 -6 -20 -4 -27 2c-15 9 -17 29 -17 45c0 18 6 36 18 41c15 7 26 2 38 -8
c3 29 1 47 -2 56c-7 23 -20 48 -42 58c-10 4 -19 3 -23 0c-10 -8 -10 -32 -10 -62v-91c0 -41 8 -75 8 -99v-23h60v-17h-61c-5 -40 -17 -89 -28 -112c21 -12 42 -27 73 -27c23 0 76 12 76 74h7c0 -85 -39 -110 -80 -110c-33 0 -72 36 -84 46c-5 -11 -20 -32 -35 -40
c-26 -15 -64 -1 -64 33c0 31 23 45 42 45c23 0 44 -6 59 -16c8 18 24 67 13 107h-63v17h56z" />
    <glyph glyph-name="Agrave" unicode="&#xc0;" horiz-adv-x="343" 
d="M60 90l107 714h63l70 -793h28v-11h-171v11h38l-13 159h-96l-14 -95c-6 -38 4 -57 44 -64v-11h-102v11c29 12 39 27 46 79zM88 185h93l-32 400zM326 852h-43l-85 55c-71 45 -104 68 -97 100c2 13 11 27 27 31c39 12 69 -28 121 -91z" />
    <glyph glyph-name="Atilde" unicode="&#xc3;" horiz-adv-x="343" 
d="M53 90l108 714h62l71 -793h27v-11h-170v11h38l-13 159h-97l-14 -95c-5 -38 4 -57 45 -64v-11h-102v11c29 12 39 27 45 79zM81 185h94l-33 400zM329 974h29c-6 -35 -28 -100 -73 -116c-58 -21 -90 21 -146 42c-20 8 -38 9 -53 -4c-9 -8 -18 -20 -26 -44h-31
c8 44 27 102 78 119c57 17 93 -40 153 -52c20 -4 35 2 50 19c9 10 15 27 19 36z" />
    <glyph glyph-name="Otilde" unicode="&#xd5;" horiz-adv-x="347" 
d="M140 799c18 7 69 8 95 -12c62 -45 78 -160 82 -248c2 -54 3 -96 3 -143s1 -92 -3 -145c-8 -101 -28 -217 -96 -255c-23 -13 -72 -14 -98 2c-63 39 -83 140 -92 246c-4 50 -4 86 -4 152c0 44 1 88 3 141c5 131 39 237 110 262zM205 730c0 53 -15 63 -30 63
c-16 0 -33 -10 -33 -63v-670c0 -53 17 -63 33 -63c15 0 30 10 30 63v670zM311 974h30c-6 -35 -29 -100 -73 -116c-59 -21 -90 21 -147 42c-19 8 -37 9 -53 -4c-8 -8 -17 -20 -26 -44h-30c8 44 27 102 78 119c56 17 92 -40 153 -52c19 -4 35 2 50 19c9 10 15 27 18 36z" />
    <glyph glyph-name="endash" unicode="&#x2013;" horiz-adv-x="317" 
d="M38 368h256v-83h-256v83z" />
    <glyph glyph-name="emdash" unicode="&#x2014;" horiz-adv-x="430" 
d="M38 368h369v-83h-369v83z" />
    <glyph glyph-name="quotedblleft" unicode="&#x201c;" horiz-adv-x="289" 
d="M115 817l10 -9c-27 -35 -55 -79 -63 -142c12 8 37 9 50 -2c12 -10 24 -32 17 -71c-3 -19 -11 -37 -30 -46c-13 -7 -34 -5 -45 3c-19 14 -25 35 -25 69c0 56 26 125 86 198zM242 817l10 -9c-27 -35 -55 -79 -63 -142c12 8 37 9 50 -2c12 -10 23 -32 17 -71
c-3 -19 -11 -37 -30 -46c-13 -7 -34 -5 -45 3c-19 14 -25 35 -25 69c0 56 26 125 86 198z" />
    <glyph glyph-name="quotedblright" unicode="&#x201d;" horiz-adv-x="289" 
d="M169 540l-10 9c28 35 55 79 63 142c-12 -8 -37 -9 -50 2c-11 10 -23 32 -17 71c3 19 11 36 30 46c13 7 34 5 45 -3c19 -14 25 -35 25 -69c0 -56 -26 -125 -86 -198zM42 540l-9 9c27 35 54 79 62 142c-11 -8 -36 -9 -49 2c-12 10 -24 32 -18 71c3 19 11 36 31 46
c13 7 33 5 44 -3c20 -14 25 -35 25 -69c0 -56 -26 -125 -86 -198z" />
    <glyph glyph-name="quoteleft" unicode="&#x2018;" horiz-adv-x="161" 
d="M115 817l10 -9c-27 -35 -55 -79 -63 -142c12 8 37 9 50 -2c12 -10 24 -32 17 -71c-3 -19 -11 -37 -30 -46c-13 -7 -34 -5 -45 3c-19 14 -25 35 -25 69c0 56 26 125 86 198z" />
    <glyph glyph-name="quoteright" unicode="&#x2019;" horiz-adv-x="161" 
d="M44 540l-9 9c27 35 54 79 63 142c-12 -8 -37 -9 -50 2c-12 10 -24 32 -18 71c4 19 11 36 31 46c13 7 33 5 44 -3c20 -14 25 -35 25 -69c0 -56 -26 -125 -86 -198z" />
    <glyph glyph-name="ydieresis" unicode="&#xff;" horiz-adv-x="284" 
d="M11 566h138v-11h-28l51 -410l46 341c7 51 -11 61 -36 69v11h88v-11c-27 -6 -32 -18 -38 -55l-70 -528c-10 -71 -18 -136 -65 -153c-17 -7 -43 -10 -57 1c-22 16 -31 38 -31 66c0 22 6 46 29 59c10 5 29 6 41 0c15 -9 22 -25 23 -44c1 -26 -10 -42 -30 -58
c-4 -4 -8 -5 -9 -10c-1 -4 2 -9 7 -9c53 0 70 68 75 116c1 11 6 42 8 60h-58l-69 555h-15v11zM25 727c15 4 38 3 54 -10c14 -11 22 -30 21 -49s-9 -36 -30 -48c-13 -7 -34 -9 -52 -1c-18 10 -30 25 -32 46c-3 26 10 52 39 62zM225 727c15 4 37 3 54 -10
c14 -11 21 -30 20 -49s-8 -36 -29 -48c-13 -7 -35 -9 -52 -1c-18 10 -30 25 -33 46c-3 26 10 52 40 62z" />
    <glyph glyph-name="Ydieresis" unicode="&#x178;" horiz-adv-x="373" 
d="M13 791h177v-11h-39l75 -369l53 264c14 71 10 96 -36 105v11h116v-11c-30 -8 -46 -22 -60 -93l-65 -323v-353h44v-11h-204v11h43v373l-81 396h-23v11zM161 947c52 63 82 103 121 91c16 -4 25 -18 27 -31c7 -32 -26 -55 -98 -100l-84 -55h-43z" />
    <glyph glyph-name="fraction" unicode="&#x2044;" horiz-adv-x="373" 
d="M13 791h177v-11h-39l75 -369l53 264c14 71 10 96 -36 105v11h116v-11c-30 -8 -46 -22 -60 -93l-65 -323v-353h44v-11h-204v11h43v373l-81 396h-23v11zM68 965c16 5 38 4 55 -9c14 -11 21 -31 20 -49c-1 -20 -9 -36 -29 -48c-13 -8 -35 -10 -52 -1c-19 10 -31 25 -33 45
c-3 27 10 53 39 62zM268 965c15 5 38 4 54 -9c14 -11 22 -31 21 -49c-1 -20 -9 -36 -30 -48c-13 -8 -34 -10 -52 -1c-18 10 -30 25 -32 45c-3 27 10 53 39 62z" />
    <glyph glyph-name="currency" unicode="&#xa4;" horiz-adv-x="200" 
d="M30 370h134v81h10v-136h-157c0 39 1 87 39 136l9 12c51 66 49 67 49 125v120c0 31 0 54 -10 61c-4 3 -13 5 -22 1c-22 -10 -36 -34 -42 -56c-3 -9 -5 -27 -2 -57c11 11 23 15 37 9c12 -5 18 -23 18 -40c0 -15 -2 -36 -17 -46c-7 -4 -17 -6 -26 -1c-17 10 -23 32 -25 55
c-4 35 1 108 43 136c16 10 37 16 57 8c30 -12 43 -47 49 -75c14 -80 2 -131 -77 -220l-21 -24c-32 -36 -41 -60 -46 -89z" />
    <glyph glyph-name="guilsinglleft" unicode="&#x2039;" horiz-adv-x="200" 
d="M105 561c39 -14 57 -34 66 -78c8 -33 10 -117 -26 -154c-19 -20 -48 -24 -69 -20c-25 4 -39 21 -49 46s-13 77 6 102c6 9 16 15 28 15c9 -1 18 -6 25 -16c6 -12 7 -38 -1 -57c-6 -11 -13 -18 -25 -19c-9 -1 -19 2 -26 7c-1 -17 0 -49 27 -65c12 -6 28 -10 37 -5
c16 9 15 25 15 67v113c0 20 2 49 -11 57c-2 1 -7 3 -17 1c-10 -1 -13 -4 -20 -5c-3 0 -19 9 -19 11c0 3 18 11 22 11c5 -2 8 -5 16 -7c4 -2 9 -1 13 0c17 7 16 32 16 63v86c0 29 1 52 -9 58c-5 3 -12 6 -25 1c-14 -4 -31 -19 -39 -39c-4 -12 -4 -20 -4 -31c14 10 32 12 43 3
c10 -9 15 -23 13 -38c-1 -12 -7 -25 -22 -31c-8 -5 -19 -4 -27 2c-16 11 -18 43 -17 58c0 28 11 63 41 78c19 9 45 11 64 -1c34 -20 39 -66 38 -96c-1 -48 -6 -88 -64 -117z" />
    <glyph glyph-name="guilsinglright" unicode="&#x203a;" horiz-adv-x="200" 
d="M116 781h28v-330h39v-6h-39v-124h19v-6h-100v6h19v124h-66zM28 451h54v198z" />
    <glyph glyph-name="fi" unicode="&#xfb01;" horiz-adv-x="200" 
d="M159 790h8l-8 -68h-118l-7 -145c4 17 23 49 41 56c18 8 37 7 53 -4c48 -31 46 -128 44 -168c-1 -14 -3 -116 -46 -142c-20 -11 -54 -11 -70 -2c-28 17 -35 46 -38 73c-2 18 0 48 16 61c8 7 19 9 29 6c13 -5 19 -18 21 -29c3 -16 3 -44 -11 -57c-11 -11 -27 -10 -39 -4
c3 -16 9 -36 32 -47c13 -7 25 -3 31 0c14 9 11 30 11 56v193c0 22 2 52 -9 59c-6 3 -14 4 -22 0c-36 -22 -46 -87 -46 -111h-7l12 264h122z" />
    <glyph glyph-name="fl" unicode="&#xfb02;" horiz-adv-x="200" 
d="M152 731c-7 20 -18 35 -34 40c-7 2 -15 2 -21 -2c-10 -8 -11 -25 -11 -63v-144c9 18 21 27 38 27c12 1 22 -3 32 -17c26 -39 23 -157 10 -198c-7 -20 -24 -51 -49 -62c-13 -5 -37 -3 -52 9c-25 21 -32 60 -38 102c-5 43 -4 68 -4 111c0 38 0 59 2 95c3 64 10 117 47 142
c16 11 42 12 59 1c28 -15 36 -51 38 -75c1 -14 -1 -36 -17 -49c-8 -5 -16 -6 -25 -2c-12 5 -20 19 -21 33c-2 13 0 35 14 48c8 7 18 8 32 4zM81 346c0 -23 5 -30 18 -30s16 7 16 30v202c0 14 0 27 -5 28c-6 1 -11 -6 -15 -13c-3 -6 -5 -9 -7 -19c-4 -11 -7 -24 -7 -37v-161z
" />
    <glyph glyph-name="daggerdbl" unicode="&#x2021;" horiz-adv-x="200" 
d="M174 777c0 -37 0 -68 -10 -108c-7 -26 -15 -44 -25 -71c-20 -60 -22 -93 -22 -151v-37c0 -29 3 -75 -16 -91c-7 -7 -15 -9 -26 -7c-12 1 -21 9 -25 19c-21 46 4 123 32 177c28 49 44 80 63 132c11 29 18 63 18 79h-133v-66h-7v124h151z" />
    <glyph glyph-name="periodcentered" unicode="&#xb7;" horiz-adv-x="209" 
d="M78 4l-17 -66c11 21 25 31 29 33c17 7 40 6 56 -5c29 -18 43 -51 43 -91c0 -26 -1 -114 -47 -142c-18 -12 -54 -11 -69 -2c-29 17 -36 47 -38 74c-2 17 0 47 15 61c9 6 19 8 29 5c13 -4 20 -17 21 -28c3 -17 3 -45 -11 -58c-11 -11 -27 -10 -39 -4c3 -15 10 -36 32 -47
c13 -6 25 -3 31 0c14 9 12 31 12 57v115c0 21 1 52 -10 58c-5 3 -14 6 -22 0c-27 -18 -44 -69 -45 -78h-8l30 118h8z" />
    <glyph glyph-name="Acircumflex" unicode="&#xc2;" horiz-adv-x="343" 
d="M60 90l107 714h63l70 -793h28v-11h-171v11h38l-13 159h-96l-14 -95c-6 -38 4 -57 44 -64v-11h-102v11c29 12 39 27 46 79zM88 185h93l-32 400zM357 852h-41l-114 120l-114 -120h-41l119 182h72z" />
    <glyph glyph-name="Ecircumflex" unicode="&#xca;" horiz-adv-x="369" 
d="M266 190h-15c-2 26 -3 68 -10 113c-11 59 -59 85 -59 85v-377c32 0 53 2 78 32c32 38 53 113 60 253l1 24h14v-320h-306v11h36v769h-36v11h306v-304h-16l-1 22c-6 104 -20 234 -84 263c-20 9 -33 8 -52 8v-373c34 0 48 26 59 85c7 45 8 87 10 113h15v-415zM343 852h-41
l-114 120l-114 -120h-41l119 182h71z" />
    <glyph glyph-name="Aacute" unicode="&#xc1;" horiz-adv-x="343" 
d="M56 90l108 714h63l70 -793h27v-11h-170v11h38l-13 159h-97l-14 -95c-5 -38 5 -57 45 -64v-11h-102v11c29 12 39 27 45 79zM85 185h93l-33 400zM146 947c52 63 83 103 122 91c16 -4 25 -18 27 -31c7 -32 -26 -55 -98 -100l-84 -55h-44z" />
    <glyph glyph-name="Edieresis" unicode="&#xcb;" horiz-adv-x="369" 
d="M266 190h-15c-2 26 -3 68 -10 113c-11 59 -59 85 -59 85v-377c32 0 53 2 78 32c32 38 53 113 60 253l1 24h14v-320h-306v11h36v769h-36v11h306v-304h-16l-1 22c-6 104 -20 234 -84 263c-20 9 -33 8 -52 8v-373c34 0 48 26 59 85c7 45 8 87 10 113h15v-415zM68 965
c16 5 38 4 55 -9c14 -11 21 -31 20 -49c-1 -20 -9 -36 -29 -48c-13 -8 -35 -10 -52 -1c-19 10 -31 25 -33 45c-3 27 10 53 39 62zM268 965c15 5 38 4 54 -9c14 -11 22 -31 21 -49c-1 -20 -9 -36 -30 -48c-13 -8 -34 -10 -52 -1c-18 10 -30 25 -32 45c-3 27 10 53 39 62z" />
    <glyph glyph-name="Egrave" unicode="&#xc8;" horiz-adv-x="369" 
d="M266 190h-15c-2 26 -3 68 -10 113c-11 59 -59 85 -59 85v-377c32 0 53 2 78 32c32 38 53 113 60 253l1 24h14v-320h-306v11h36v769h-36v11h306v-304h-16l-1 22c-6 104 -20 234 -84 263c-20 9 -33 8 -52 8v-373c34 0 48 26 59 85c7 45 8 87 10 113h15v-415zM309 852h-43
l-85 55c-71 45 -104 68 -97 100c2 13 10 27 27 31c39 12 69 -28 121 -91z" />
    <glyph glyph-name="Iacute" unicode="&#xcd;" horiz-adv-x="249" 
d="M182 11h36v-11h-189v11h36v769h-36v11h189v-11h-36v-769zM85 947c52 63 82 103 121 91c16 -4 25 -18 27 -31c7 -32 -26 -55 -97 -100l-85 -55h-43z" />
    <glyph glyph-name="Icircumflex" unicode="&#xce;" horiz-adv-x="249" 
d="M182 11h36v-11h-189v11h36v769h-36v11h189v-11h-36v-769zM281 852h-41l-114 120l-114 -120h-41l119 182h72z" />
    <glyph glyph-name="Idieresis" unicode="&#xcf;" horiz-adv-x="249" 
d="M182 11h36v-11h-189v11h36v769h-36v11h189v-11h-36v-769zM14 965c15 5 38 4 54 -9c14 -11 22 -31 21 -49c-1 -20 -9 -36 -29 -48c-13 -8 -35 -10 -52 -1c-19 10 -31 25 -33 45c-3 27 10 53 39 62zM214 965c15 5 38 4 54 -9c14 -11 22 -31 21 -49c-2 -20 -9 -36 -30 -48
c-13 -8 -34 -10 -52 -1c-18 10 -30 25 -32 45c-4 27 9 53 39 62z" />
    <glyph glyph-name="Igrave" unicode="&#xcc;" horiz-adv-x="249" 
d="M182 11h36v-11h-189v11h36v769h-36v11h189v-11h-36v-769zM240 852h-44l-84 55c-72 45 -104 68 -98 100c2 13 11 27 27 31c39 12 70 -28 122 -91z" />
    <glyph glyph-name="Oacute" unicode="&#xd3;" horiz-adv-x="347" 
d="M142 799c19 7 69 8 96 -12c61 -45 78 -160 81 -248c2 -54 3 -96 3 -143s1 -92 -3 -145c-8 -101 -28 -217 -96 -255c-22 -13 -72 -14 -98 2c-63 39 -83 140 -91 246c-5 50 -5 86 -5 152c0 44 1 88 4 141c4 131 39 237 109 262zM207 730c0 53 -15 63 -30 63
s-33 -10 -33 -63v-670c0 -53 18 -63 33 -63s30 10 30 63v670zM150 947c52 63 82 103 121 91c16 -4 25 -18 27 -31c7 -32 -26 -55 -97 -100l-85 -55h-43z" />
    <glyph glyph-name="Ocircumflex" unicode="&#xd4;" horiz-adv-x="347" 
d="M140 799c18 7 69 8 95 -12c62 -45 78 -160 82 -248c2 -54 3 -96 3 -143s1 -92 -3 -145c-8 -101 -28 -217 -96 -255c-23 -13 -72 -14 -98 2c-63 39 -83 140 -92 246c-4 50 -4 86 -4 152c0 44 1 88 3 141c5 131 39 237 110 262zM205 730c0 53 -15 63 -30 63
c-16 0 -33 -10 -33 -63v-670c0 -53 17 -63 33 -63c15 0 30 10 30 63v670zM330 852h-41l-114 120l-114 -120h-41l119 182h71z" />
    <glyph glyph-name="Ograve" unicode="&#xd2;" horiz-adv-x="347" 
d="M142 799c19 7 69 8 96 -12c61 -45 78 -160 81 -248c2 -54 3 -96 3 -143s1 -92 -3 -145c-8 -101 -28 -217 -96 -255c-22 -13 -72 -14 -98 2c-63 39 -83 140 -91 246c-5 50 -5 86 -5 152c0 44 1 88 4 141c4 131 39 237 109 262zM207 730c0 53 -15 63 -30 63
s-33 -10 -33 -63v-670c0 -53 18 -63 33 -63s30 10 30 63v670zM298 852h-43l-85 55c-71 45 -104 68 -97 100c2 13 11 27 27 31c39 12 69 -28 121 -91z" />
    <glyph glyph-name="Uacute" unicode="&#xda;" horiz-adv-x="386" 
d="M371 791v-11c-49 -13 -52 -51 -52 -87v-524c0 -57 2 -135 -54 -169c-34 -21 -113 -17 -146 2c-58 34 -54 122 -54 168v610h-36v11h185v-11h-32v-637c0 -79 0 -116 20 -131c13 -10 41 -9 55 0c47 30 45 116 45 168v513c0 50 -3 74 -51 87v11h120zM171 947
c52 63 83 103 122 91c16 -4 25 -18 27 -31c6 -32 -26 -55 -98 -100l-84 -55h-44z" />
    <glyph glyph-name="Ucircumflex" unicode="&#xdb;" horiz-adv-x="386" 
d="M371 791v-11c-49 -13 -52 -51 -52 -87v-524c0 -57 2 -135 -54 -169c-34 -21 -113 -17 -146 2c-58 34 -54 122 -54 168v610h-36v11h185v-11h-32v-637c0 -79 0 -116 20 -131c13 -10 41 -9 55 0c47 30 45 116 45 168v513c0 50 -3 74 -51 87v11h120zM361 852h-41l-114 120
l-114 -120h-41l119 182h72z" />
    <glyph glyph-name="Ugrave" unicode="&#xd9;" horiz-adv-x="386" 
d="M371 791v-11c-49 -13 -52 -51 -52 -87v-524c0 -57 2 -135 -54 -169c-34 -21 -113 -17 -146 2c-58 34 -54 122 -54 168v610h-36v11h185v-11h-32v-637c0 -79 0 -116 20 -131c13 -10 41 -9 55 0c47 30 45 116 45 168v513c0 50 -3 74 -51 87v11h120zM311 852h-43l-85 55
c-71 45 -104 68 -97 100c2 13 11 27 27 31c39 12 69 -28 121 -91z" />
    <glyph glyph-name="dotlessi" unicode="&#x131;" horiz-adv-x="197" 
d="M29 566h113v-555h20v-11h-133v11h20v544h-20v11z" />
    <glyph glyph-name="circumflex" unicode="&#x2c6;" horiz-adv-x="368" 
d="M339 614h-41l-114 119l-114 -119h-41l120 181h71z" />
    <glyph glyph-name="tilde" unicode="&#x2dc;" horiz-adv-x="386" 
d="M329 735h29c-6 -34 -28 -99 -73 -116c-58 -20 -90 21 -146 43c-20 7 -38 8 -53 -5c-9 -7 -18 -19 -26 -43h-31c8 43 27 102 78 118c57 17 93 -40 153 -52c20 -3 35 2 50 20c9 9 15 27 19 35z" />
    <glyph glyph-name="ring" unicode="&#x2da;" horiz-adv-x="274" 
d="M113 829c27 5 68 3 98 -24c29 -26 41 -63 35 -98c-5 -33 -24 -65 -63 -83c-31 -14 -76 -13 -104 4c-37 23 -49 54 -50 90c-1 28 4 64 45 95c10 8 24 12 39 16zM73 717c2 -23 15 -42 35 -53s44 -9 59 -1c27 14 36 37 37 54c2 23 -8 45 -25 60c-17 14 -45 16 -61 10
c-31 -9 -49 -42 -45 -70z" />
    </font>
</defs>
</svg>
